<?xml version="1.0" encoding="UTF-8"?>
<svg id="Layer_1" xmlns="http://www.w3.org/2000/svg" xmlns:xlink="http://www.w3.org/1999/xlink" version="1.1" viewBox="0 0 3000 3000">
  <!-- Generator: Adobe Illustrator 30.2.1, SVG Export Plug-In . SVG Version: 2.1.1 Build 1)  -->
  <defs>
    <style>
      .st0 {
        isolation: isolate;
        opacity: .29;
      }

      .st1 {
        fill: url(#linear-gradient2);
      }

      .st2 {
        fill: url(#linear-gradient1);
      }

      .st3 {
        fill: url(#linear-gradient9);
      }

      .st4 {
        fill: url(#linear-gradient3);
      }

      .st5 {
        fill: url(#linear-gradient6);
      }

      .st6 {
        fill: url(#linear-gradient8);
      }

      .st7 {
        fill: url(#linear-gradient7);
      }

      .st8 {
        fill: url(#linear-gradient5);
      }

      .st9 {
        fill: url(#linear-gradient4);
      }

      .st10 {
        fill: url(#linear-gradient);
      }

      .st11 {
        fill: #fff;
      }
    </style>
    <linearGradient id="linear-gradient" x1="1129.35" y1="1023.3" x2="2500.56" y2="1023.3" gradientTransform="translate(0 3000) scale(1 -1)" gradientUnits="userSpaceOnUse">
      <stop offset="0" stop-color="#46040f"/>
      <stop offset="1" stop-color="#ca0f02"/>
    </linearGradient>
    <linearGradient id="linear-gradient1" x1="1161.22" y1="223.87" x2="1166.2" y2="223.87" gradientTransform="translate(0 3000) scale(1 -1)" gradientUnits="userSpaceOnUse">
      <stop offset="0" stop-color="#f40f02"/>
      <stop offset=".99" stop-color="#46040f"/>
    </linearGradient>
    <linearGradient id="linear-gradient2" x1="1154.04" y1="816.52" x2="2500.52" y2="816.52" gradientTransform="translate(0 3000) scale(1 -1)" gradientUnits="userSpaceOnUse">
      <stop offset="0" stop-color="#ca0f02"/>
      <stop offset=".99" stop-color="#46040f"/>
    </linearGradient>
    <linearGradient id="linear-gradient3" x1="1868.86" y1="1660.74" x2="2500.52" y2="1660.74" gradientTransform="translate(0 3000) scale(1 -1)" gradientUnits="userSpaceOnUse">
      <stop offset="0" stop-color="#ca0f02"/>
      <stop offset=".99" stop-color="#46040f"/>
    </linearGradient>
    <linearGradient id="linear-gradient4" x1="966.07" y1="696.69" x2="1260.52" y2="696.69" gradientTransform="translate(0 3000) scale(1 -1)" gradientUnits="userSpaceOnUse">
      <stop offset="0" stop-color="#ca0f02"/>
      <stop offset=".99" stop-color="#46040f"/>
    </linearGradient>
    <linearGradient id="linear-gradient5" x1="1283.52" y1="696.69" x2="1615.92" y2="696.69" xlink:href="#linear-gradient4"/>
    <linearGradient id="linear-gradient6" x1="1647.06" y1="696.68" x2="1910.87" y2="696.68" xlink:href="#linear-gradient4"/>
    <linearGradient id="linear-gradient7" x1="897.72" y1="1630.05" x2="1692.49" y2="2765.1" gradientTransform="translate(0 3000) scale(1 -1)" gradientUnits="userSpaceOnUse">
      <stop offset="0" stop-color="#ca0f02"/>
      <stop offset=".99" stop-color="#46040f"/>
    </linearGradient>
    <linearGradient id="linear-gradient8" x1="834.77" y1="1710.72" x2="1576.93" y2="2770.64" xlink:href="#linear-gradient7"/>
    <linearGradient id="linear-gradient9" x1="1209.62" y1="1624.23" x2="1616.18" y2="2204.88" xlink:href="#linear-gradient7"/>
  </defs>
  <path class="st10" d="M2500.54,1614.4v1038.52c0,126.59-98.88,230.12-223.68,237.47-4.69.33-9.47.45-14.28.45h-895.36c-4.82,0-9.51-.12-14.28-.45-56.89-3.35-108.47-26.73-147.69-63.22-46.73-43.42-75.9-105.41-75.9-174.22v-1352.51c.04-131.41,106.51-237.88,237.88-237.88h565.83l558.32,542.93,9.18,8.9h-.02Z"/>
  <path class="st2" d="M1166.19,2780.21c.23-.92-5.4-7.31-4.95-8.15"/>
  <path class="st1" d="M1154.04,2758.63l63.88,14.33c.85.19,1.72.33,2.6.33,0,0,.01,0,.02,0l934.79-3.46c.57,0,1.14-.04,1.7-.13,111.74-16.55,180.42-92.41,191.59-203.53.04-.45.06-.9.06-1.35l-8.47-719.82c0-.43-.03-.87-.09-1.3-9.48-78.43-49.54-127.59-123.4-157.27-.23-.09-.46-.18-.7-.26-82.15-27.28-162.35-60.79-239.94-99.66-19.14-9.63-36.65-22.36-51.13-38.2-12.51-13.65-31.46-38.86-32.75-59.42-.58-9.16,9.15-15.26,17.2-10.84,4.82,2.64,9.46,6.68,13.93,12.12.82,1,1.82,1.83,2.92,2.5,4.12,2.5,15.38,9.32,33.78,20.47,1.2.72,2.51,1.23,3.89,1.49,172.17,32.22,345.34,61.7,519.54,88.43.28.04.56.09.84.16,1.61.36,3.16.79,4.64,1.31s2.95,1.45,4.13,2.59l7.47,7.27h0v1038.53c0,126.46-98.68,229.92-223.25,237.45-.26.02-.52.02-.77.02h-923.15c-.26,0-.52,0-.78-.02-56.6-3.42-107.85-26.64-146.93-62.85-.25-.23-.5-.48-.73-.73-10.29-11.19-20.62-20.05-29.63-32.36"/>
  <path class="st4" d="M2500.52,1614.38v1.59l-526.04-90.96c-69.25-12-115.7-77.87-103.74-147.12l54.52-315.34h7.8l567.46,551.83h0Z"/>
  <rect class="st11" x="787.26" y="2032.57" width="1285.31" height="584.52" rx="167.41" ry="167.41"/>
  <g>
    <path class="st9" d="M973.66,2111.77h131.23c96.25,0,155.63,52.06,155.63,132.04s-59.38,132.31-155.63,132.31h-22.78v110.89c0,3.25-3.52,7.86-8.94,7.86h-99.51c-3.52,0-7.59-3.79-7.59-7.86v-366.83c0-4.34,4.07-8.68,7.59-8.41h0ZM1081.03,2211v65.61h28.74c19.25,0,32.81-13.56,32.81-32.8s-13.56-32.81-32.81-32.81h-28.74Z"/>
    <path class="st8" d="M1291.11,2111.77h129.06c117.94-.27,195.75,76.19,195.75,191.14s-77.81,191.96-195.75,191.96h-129.06c-3.52,0-7.59-3.79-7.59-8.4v-366.29c0-4.34,4.07-8.68,7.59-8.41h0ZM1397.93,2211.82v183.01h28.74c43.11,0,71.84-36.6,71.58-91.64,0-55.31-28.2-91.37-71.58-91.37h-28.74Z"/>
    <path class="st5" d="M1654.65,2111.77h247.81c5.69,0,8.41,2.72,8.41,7.86v83.78c0,5.7-2.72,8.41-8.41,8.41h-140.99v50.43h111.44c4.61,0,8.13,3.26,7.32,7.32l-7.86,77.54c-.81,4.88-3.79,7.33-9.49,7.33h-101.4v132.58c0,3.26-4.34,7.86-8.41,7.86h-98.42c-4.34,0-7.59-3.79-7.59-8.4v-366.84c0-3.52,3.25-8.13,7.59-7.86h0Z"/>
  </g>
  <g>
    <path class="st7" d="M1834.01,1072.93c-1.51-3.55-3.18-7.02-4.94-10.36h-13.06c2.33-5.55,3.06-11.59,1.67-17.06-.25-1.1-.57-2.16-1.02-3.18-.2-.45-.37-.86-.61-1.31-6.28-9.59-12.81-19.1-18.57-29.42-.08-.12-.12-.25-.21-.37-2.53-4.57-4.94-9.18-7.18-13.87-3.43-5.31-6.81-10.69-9.96-16.37-1.88-3.39-3.71-6.81-5.39-10.28-5.18-7.8-10.32-15.63-15.02-24-24.61-44.24-35.91-93.25-44.28-143.12-1.51-9.18-3.14-17.75-5.22-26.48-.37-1.8-.81-3.59-1.26-5.43-8.69,4.69-17.67,8.98-26.93,12.85l-36.53-4.86-6.73-.9c1.31-.86,2.61-1.76,3.96-2.61,1.84-1.22,3.71-2.49,5.63-3.75,1.55-1.06,3.1-2.12,4.73-3.22,10.86-7.43,22.98-15.92,35.38-25.34,1.63-1.27,3.31-2.53,4.94-3.8.04,0,.08,0,.12-.04,0,0,.04,0,.04-.04.04-.04.08-.04.12-.08,13.63-10.61,27.46-22.2,40.28-34.56,1.14-1.1,2.29-2.25,3.39-3.35,5.26-5.26,10.37-10.61,15.1-16.08,2.86-3.26,5.59-6.53,8.24-9.88.12-.16.25-.33.37-.49,1.8-2.24,3.51-4.57,5.18-6.85,1.18-1.63,2.33-3.27,3.43-4.94,1.35-1.96,2.61-3.96,3.84-5.96,1.39-2.16,2.65-4.37,3.88-6.57.7-1.22,1.35-2.49,1.96-3.71.81-1.55,1.59-3.1,2.28-4.65,1.02-2.16,2-4.37,2.86-6.57.49-1.22.98-2.49,1.43-3.75,1.02-2.9,1.96-5.83,2.69-8.73.25-.86.45-1.76.65-2.61.25-1.14.49-2.25.69-3.39.25-1.39.49-2.78.65-4.12.12-.7.2-1.43.28-2.12.16-1.51.29-2.98.37-4.49.28-4.94.12-9.88-.57-14.86-.49-3.43-1.23-6.9-2.2-10.37-.65-2.24-1.43-4.45-2.29-6.69-.41,6.08-1.35,12.04-2.77,17.91.04.04.04.08-.04.08-10.49,43.67-47.42,81.25-82.03,110.06-3.84,2.98-7.67,5.88-11.51,8.73-3.47,2.61-6.94,5.14-10.45,7.63-3.8,2.73-7.63,5.43-11.47,8.04-1.47,1.02-2.94,2-4.41,3.02-9.88,6.69-19.96,13.1-30.16,19.14-.98.65-2,1.27-3.02,1.84-4.08,2.45-8.2,4.82-12.36,7.14-4.12,2.33-8.33,4.61-12.53,6.86h-.04c-7.92,4.2-15.96,8.28-24.12,12.16-6.53.12-12.98.41-19.34.73-3.06.16-6.12.37-9.18.57-.24,0-.49,0-.73.04-3.47.25-6.98.53-10.45.82-3.71.29-7.43.65-11.18,1.02-4.04.41-8.12.86-12.2,1.31-4.04.49-8.12.98-12.24,1.51-13.59,1.76-27.46,3.8-41.87,6.04,3.47-5.88,6.81-11.75,10-17.67,1.63-3.02,3.22-6,4.73-9.02.08-.12.12-.2.2-.33,1.51-2.98,3.02-6,4.45-8.98,1.55-3.18,3.06-6.41,4.53-9.59.86-1.8,1.67-3.63,2.45-5.43.65-1.47,1.31-2.94,1.92-4.41,2.73-6.36,5.26-12.69,7.63-19.06,14.77-39.87,22.45-80.07,21.46-120.1-.04-2.04-.12-4.12-.24-6.2-.12-2.69-.29-5.39-.49-8.12,0-.25,0-.53-.04-.78-.2-2.57-.45-5.18-.73-7.8-.29-2.45-.57-4.94-.9-7.38-.33-2.49-.69-4.94-1.1-7.39-1.35-8.24-3.06-16.45-5.18-24.61-.53-2-1.06-4-1.63-6-1.14-4-2.37-8-3.67-12-.69-1.96-1.35-3.96-2.08-5.96-.57-1.63-1.14-3.26-1.75-4.86-1.1-2.86-2.2-5.71-3.39-8.53-.86-2-1.67-4.04-2.57-6-1.06-2.45-2.16-4.86-3.3-7.26-1.1-2.41-2.29-4.82-3.51-7.22-.94-1.88-1.92-3.75-2.9-5.63-3.59-6.73-7.43-13.47-11.63-20.16-.61-.98-1.18-1.96-1.84-2.94-.44-.65-.45-.68-.04-.08l-.04-.04c-.04-.08-.08-.12-.12-.21-.16-.25-.29-.45-.45-.69,26.2,96.56,9.26,192.66-34.89,277.59v.04c-12.08,23.22-26.16,45.63-41.99,66.93-.29.41-.61.81-.9,1.22-9.3,15.35-21.99,24.28-38.48,30.32-48.89,18-93.29,42.77-136.63,71.38-10.45,6.9-23.02,8.41-35.38,4.53-2.25-.7-4.49-1.59-6.69-2.65-34.69-16.69-63.09-38.61-89.13-65.13-21.91-22.32-38.12-47.54-57.58-72.44,3.47,10.12,7.35,19.96,11.63,29.55,0,.04.04.04.04.04.78,1.8,1.59,3.55,2.41,5.31.33.65.61,1.35.94,2,1.1,2.33,2.2,4.61,3.31,6.9.04.08.08.21.16.29.08.16.16.32.25.45v.04c1.92,3.84,3.92,7.63,6,11.39.9,1.63,1.8,3.22,2.69,4.82.86,1.55,1.8,3.1,2.69,4.65,2.73,4.61,5.55,9.1,8.45,13.55,1.27,1.96,2.57,3.92,3.92,5.84,0,.04.08.08.08.08,1.59,2.41,3.31,4.77,5.02,7.14.08.12.12.2.2.28,1.72,2.37,3.47,4.73,5.26,7.06.94,1.23,1.88,2.41,2.82,3.59.12.16.25.33.37.49,1.43,1.8,2.86,3.55,4.33,5.31.2.32.45.61.73.9,1.06,1.31,2.16,2.61,3.22,3.88,4.45,5.18,9.02,10.24,13.75,15.14,1.88,1.96,3.79,3.92,5.75,5.83,1.63,1.63,3.3,3.22,4.98,4.77.49.53.98.98,1.47,1.43,1.96,1.88,4,3.71,6.04,5.51.82.82,1.67,1.55,2.49,2.24,1.51,1.39,3.1,2.74,4.69,4.04.12.16.25.25.37.33h.04c.28.28.53.53.81.73,1.47,1.27,2.98,2.49,4.49,3.71,3.55,2.86,7.14,6.37,9.59,9.84,1.55,2.16,2.65,4.37,3.02,6.41.33,1.84.37,3.63.21,5.47,0,.65-.08,1.31-.25,1.96-.08.57-.2,1.14-.33,1.71,0,.08,0,.12-.04.2-.08.41-.21.82-.37,1.23,0,.08,0,.16-.08.24-.16.57-.37,1.1-.57,1.63-.41,1.1-.9,2.12-1.47,3.14-.2.41-.41.78-.65,1.14-.16.28-.37.57-.57.86-.33.53-.74,1.1-1.14,1.59-.37.49-.73.94-1.14,1.39-.57.65-1.18,1.31-1.84,1.88-43.06,39.75-80.27,83.29-113.74,131.16-4.61,6.41-10.2,10.98-16.45,13.75-5.43,2.49-11.34,3.67-17.55,3.67-1.1,0-2.2-.04-3.35-.12-1.1-.08-2.2-.16-3.35-.33h-.04c-2-.25-4.04-.65-6.12-1.14-.37-.08-.78-.2-1.14-.28-61.05-15.06-110.51-48.11-157.77-93.09,36.24,55.95,93.05,95.37,157.57,114.27,5.26,1.55,10.61,2.98,16,4.24.49.12.98.28,1.43.45.37.16.73.33,1.1.53.08.04.2.12.28.16h.04c.78.37,1.51.86,2.2,1.47.25.12.37.28.57.49.28.16.53.41.74.65.37.28.65.61.94.98.45.45.86.9,1.22,1.43.45.53.86,1.14,1.27,1.71.65.94,1.22,1.92,1.8,2.94,2.25,4.08,3.92,8.41,5.18,11.59,11.43,25.63,6.2,51.83-11.92,69.58,4.08,7.92,8.16,16.28,12.49,24.77.74-.45,1.47-.94,2.16-1.43,1.92,3.51,3.84,7.18,5.75,10.94,3.39,6.57,6.81,13.51,10.33,20.53.45-.24.9-.57,1.31-.86,3.88,7.1,7.75,14.82,11.75,22.81,3.14,6.24,6.33,12.65,9.63,19.06,3.39,5.35,6.98,10.45,10.77,15.22,9.75,12.41,20.81,22.49,33.83,28.2,8.73,3.84,17.67,5.71,26.44,5.71v28.16c22.57,6.41,45.79.28,63.25-17.67,38.44-39.5,15.88-63.42,61.21-93.41,66.68-44.12,138.14-77.66,214.01-104.76,110.15-39.38,223.02-59.58,339.82-61.66,18.57-.33,33.34-23.71,26.36-39.91h.02ZM1129.31,1312.97c-.9-1.39-1.84-2.82-2.78-4.24-.04,0-.04-.04-.04-.04-1.55-2.45-3.1-5.02-4.69-7.63-1.22-2.08-2.45-4.2-3.67-6.37l-2.94-5.26c-2.12-3.84-4.16-7.63-6.04-11.26,0-.08-.04-.12-.08-.16-.04-.08-.08-.16-.12-.24-.08-.12-.16-.29-.25-.45-.04-.08-.12-.16-.12-.24-.45-.86-.86-1.67-1.27-2.45s-.82-1.59-1.23-2.37c-2.37-4.65-4.45-8.9-6.12-12.28-.65-1.39-1.31-2.65-1.84-3.79-.25-.57-.49-1.06-.74-1.55l-45.95-96.15c-2.53-5.26-3.31-13.02-1.43-19.67.16-.61.37-1.22.61-1.84.65-1.8,1.55-3.51,2.65-4.98,2.86-3.8,5.75-7.55,8.69-11.3,2.73-3.55,5.51-7.06,8.33-10.53.78-1.02,1.55-2,2.37-2.98,3.14-3.88,6.33-7.71,9.51-11.51,3.31-3.96,6.65-7.88,10.04-11.75v-.04c3.1-3.51,6.16-7.02,9.26-10.45,2.78-3.1,5.59-6.16,8.41-9.22,2.04-2.25,4.16-4.49,6.24-6.69,2.49-2.65,4.98-5.26,7.59-7.88,3.51-3.63,7.06-7.26,10.69-10.85,9.75-9.67,19.71-19.1,29.87-28.28,6.61-5.96,13.34-11.83,20.16-17.55,3.63-3.06,7.31-6.08,10.98-9.1,4.69-3.8,9.47-7.59,14.24-11.26,3.26-2.57,6.61-5.1,9.96-7.59,3.39-2.53,6.81-5.06,10.28-7.55,3.43-2.49,6.9-4.94,10.37-7.39,3.47-2.41,6.98-4.81,10.49-7.18,7.06-4.73,14.16-9.35,21.34-13.84,3.59-2.24,7.18-4.45,10.81-6.61,3.63-2.2,7.27-4.33,10.94-6.45,3.67-2.12,7.34-4.2,11.06-6.24,3.35-1.84,6.69-3.67,10.04-5.47,1.71-.9,3.39-1.8,5.1-2.65,2.9-1.51,5.79-2.98,8.69-4.45,1.76-.9,3.59-1.76,5.35-2.65,3.8-1.88,7.59-3.71,11.39-5.47,1.92-.9,3.84-1.8,5.75-2.65.41-.24.86-.45,1.31-.61,1.23-.61,2.45-1.14,3.67-1.67.25-.12.53-.25.78-.33,3.84-1.71,7.71-3.39,11.55-5.06,0,0,.04,0,.04-.04,3.88-1.59,7.75-3.18,11.67-4.77,3.75-1.51,7.51-2.98,11.3-4.41,2.9-1.1,5.84-2.2,8.73-3.27l2.33-.86c2.65-.98,5.3-1.92,8-2.77,6.49-2.29,13.06-4.41,19.63-6.41,2.41-.73,4.82-1.47,7.26-2.2,3.51-1.06,7.06-2.08,10.61-3.02.82-.25,1.67-.49,2.49-.69,3.51-.94,7.02-1.88,10.53-2.73,1.92-.49,3.84-.98,5.71-1.43,2.45-.61,4.94-1.18,7.43-1.76,8.86-2,17.79-3.84,26.73-5.47,3.14-.57,6.28-1.1,9.43-1.63,6.28-1.02,12.61-1.96,18.94-2.82,9.51-1.27,19.1-2.29,28.73-3.1,8.04-.65,16.08-1.14,24.16-1.51,16.32-.65,32.85-.65,49.46.04.9.04,1.84.08,2.78.12,2.16.08,4.32.21,6.49.33,4.81.28,9.71.65,14.57,1.06,2.37.16,4.69.41,7.06.61.9.08,1.76.2,2.61.41.25,0,.53.08.78.16.82.16,1.63.37,2.37.61,1.18.37,2.29.82,3.35,1.35.45.16.86.37,1.27.61.16.08.33.16.49.28h.04c.65.33,1.27.74,1.84,1.14.04.04.12.08.16.12.08.08.2.12.28.25.37.25.74.53,1.14.81.32.25.65.53.98.82.04.04.08.04.08.08.16.12.33.28.49.41.53.45,1.02.94,1.47,1.43.65.7,1.27,1.35,1.84,2.08.53.65,1.06,1.31,1.51,2,.08.08.12.21.2.29.53.73.98,1.51,1.43,2.29.41.65.74,1.31,1.06,2,.16.29.29.57.41.86.37.69.65,1.43.94,2.16.37.86.69,1.75.94,2.65.41,1.22.74,2.45.98,3.67.16.57.24,1.18.37,1.8.12.94.28,1.84.37,2.78,5.55,43.42,13.47,84.52,27.06,125.69,1.23,3.27,2.45,6.49,3.71,9.67.82,2.04,1.67,4.04,2.49,6.04.98,2.29,1.96,4.53,2.98,6.78.86,1.96,1.76,3.92,2.69,5.83.37.78.74,1.51,1.06,2.29.04.08.08.12.16.21v.04s0,.04.04.08c.04.12.12.2.16.29.16.37.33.69.45,1.02.12.2.25.45.33.65,1.02,2.04,2.12,4.08,3.18,6.12.78,1.47,1.55,2.94,2.37,4.37,0,0-.04.04,0,.04h.04c.78,1.47,1.59,2.94,2.45,4.41,1.8,3.22,3.75,6.41,5.79,9.67.78,1.18,1.55,2.41,2.33,3.63,1.23,1.88,2.49,3.8,3.8,5.71,1.55,2.29,3.18,4.61,4.86,6.98-194.5,16.28-415.04,75.66-569.95,199.27-.49.45-.98.82-1.43,1.23-.49.37-.94.78-1.39,1.18s-.9.81-1.35,1.22c-.41.41-.81.78-1.22,1.18-1.76,1.71-3.18,3.35-4.37,5.02-.29.37-.53.74-.78,1.1-.32.45-.65.94-.94,1.43-.65,1.02-1.23,2.04-1.72,3.06-.28.53-.53,1.02-.73,1.55-.04.08-.08.16-.12.25-.25.49-.45.98-.61,1.47s-.37.98-.53,1.47c-.33.86-.61,1.75-.86,2.65-.69,2.29-1.31,4.65-1.92,7.18-1.96,8.33-3.96,18.41-9.75,32.16-.69,1.59-3.02,3.75-5.47,5.26-.73.49-1.47.9-2.2,1.18-.08.04-.12.08-.2.08-.45.16-.9.33-1.31.45l-.04.04c-.12.04-.25.04-.37.08-.33.08-.65.12-.94.12-.16,0-.28-.04-.41-.04-.21-.04-.41-.08-.65-.16-.45-.08-.9-.25-1.39-.53-.08,0-.12,0-.16-.04-.16-.08-.37-.16-.53-.28-.41-.2-.78-.45-1.18-.74-.12-.08-.21-.12-.33-.2-.37-.33-.69-.57-1.1-.9-.16-.08-.28-.24-.45-.37-.25-.2-.49-.45-.78-.69-.61-.57-1.22-1.18-1.8-1.8-.98-1.02-2-2.16-2.98-3.43-2.16-2.61-4.41-5.67-6.65-8.98v-.04l-.04-.04v-.02ZM1867.64,494.58c.16-48.56-9.71-96.03-28.89-139.49-2.45-3.35-5.02-6.69-7.67-9.96-52.03-64.64-128.63-100.43-209.11-100.64h-.08c-17.14-.04-34.52,1.55-51.83,4.82-33.34,6.33-63.18,17.51-93.82,31.42-2.29-3.75-4.61-7.47-7.06-11.1-39.01-58.48-96.92-98.6-165.61-116.18-30.28-7.76-61.25-12.2-92.35-13.34-45.01-1.72-90.23,3.47-133.77,15.47-68.44,18.85-122.47,62.76-156.3,122.02-.04.04-.04.12-.08.25-8.73,15.26-16.08,31.5-21.99,48.64-21.51,62.32-26.04,127.04-21.43,192.66.2,3.22.45,6.45.73,9.67-89.94,22.4-162.06,70.07-205.64,148.91,0,0-.04,0-.04.04-3.96,7.14-7.71,14.61-11.18,22.28-15.67,34.69-24.04,70.23-27.63,107.66-.53,5.63-.98,11.34-1.31,17.1-33.38,27.34-62.03,56.56-84.27,92.72-.37.57-.69,1.1-1.02,1.67v.04c-33.22,55.13-39.42,118.27-17.87,176.05,65.58,82.31,176.26,133.49,277.63,149.04,13.75,2.08,28.04,3.14,42.52,3.27-91.49-14.73-194.29-64.19-246.61-142.34-1.1-1.63-2.12-3.27-3.14-4.9s-2-3.31-2.9-4.94c-.74-1.27-1.43-2.53-2.08-3.8-.37-.65-.69-1.31-1.02-1.96-.74-1.43-1.43-2.86-2.08-4.28-.53-1.06-1.02-2.16-1.43-3.22-.33-.69-.61-1.35-.9-2.04-.08-.08-.12-.12-.12-.2-.65-1.59-1.31-3.18-1.88-4.78-.65-1.75-1.27-3.47-1.84-5.18-.57-1.76-1.14-3.47-1.63-5.22-11.59-39.75-4.65-82.23,19.55-119.29,23.47-35.79,54.36-63.75,90.31-89.62-1.18-40.44,3.39-79.58,18.49-117.9,39.3-102.11,130.14-146.83,235.27-158.63-26.49-139.28-9.63-326.23,154.59-367.08,31.95-7.96,63.46-10.57,96.8-10.57,81.09.04,155.04,24.45,203.03,80.56,4.73,5.55,9.18,11.43,13.43,17.63.04.04.04.12.08.16.29.37.57.78.82,1.14,1.67,2.49,3.31,5.06,4.86,7.63,1.59,2.61,3.14,5.22,4.61,7.92,1.35,2.37,2.61,4.77,3.8,7.22.53,1.02,1.06,2.04,1.55,3.1.9,1.88,1.8,3.75,2.65,5.63.45.94.86,1.88,1.27,2.86.16.28.29.57.37.86.73,1.59,1.39,3.22,2.08,4.9.33.86.69,1.71,1.02,2.57.94,2.33,1.8,4.69,2.65,7.1.21.53.41,1.1.61,1.67.94,2.69,1.84,5.39,2.69,8.16,1.02,3.31,2,6.69,2.94,10.12,108.23-80.56,242.04-96.19,335.13,11.75.9,1.14,1.8,2.25,2.65,3.39,4.77,6.16,9.26,12.49,13.47,18.98.12.12.16.29.25.41,4.57,6.98,8.77,14.16,12.65,21.47.81,1.47,1.59,2.94,2.33,4.45,1.47,2.86,2.9,5.75,4.24,8.65.04.08.08.16.12.25,1.31,2.82,2.57,5.63,3.76,8.49.04.04.08.12.08.16,1.18,2.78,2.33,5.59,3.43,8.41.12.33.25.65.37.98,1.1,2.77,2.12,5.59,3.1,8.41.86,2.49,1.67,4.98,2.49,7.47.86,2.69,1.67,5.43,2.45,8.16.45,1.59.9,3.18,1.31,4.77.37,1.35.69,2.69,1.02,4,.49,2,.98,4,1.43,6.04.45,2,.9,4.04,1.31,6.08.25,1.06.45,2.08.61,3.14.9,4.82,1.67,9.67,2.33,14.53.25,1.63.45,3.27.61,4.9.25,2.29.49,4.61.69,6.94.37,4.16.61,8.37.78,12.57.08,1.63.12,3.26.16,4.86.57,29.47-3.96,58.85-14.04,86.72,23.83-41.83,37.38-89.66,37.55-142.26l-.05-.02Z"/>
    <path class="st6" d="M1830.08,636.84c-11.35,31.38-29.71,60.85-55.66,86.44-19.63,19.34-41.5,35.46-65.46,48.4-8.69,4.69-17.67,8.98-26.93,12.85l-36.52-4.86-6.73-.9c1.31-.86,2.61-1.75,3.96-2.61,57.91-38.69,168.01-117.16,145.77-194.34-.65-2.25-1.43-4.45-2.29-6.69-.41,6.08-1.35,12.04-2.78,17.92.04.04.04.08-.04.08-10.49,43.67-47.42,81.25-82.03,110.06-30.53,23.67-62.19,44.48-95.9,62.4h-.04c-7.92,4.2-15.96,8.29-24.12,12.16-39.67.86-76.11,5.63-117.21,12.04,3.47-5.88,6.81-11.75,10-17.67,10.16-18.81,18.85-37.79,25.91-56.81,33.42-90.11,30.36-181.89-26.16-269.96,26.2,96.56,9.26,192.66-34.89,277.59v.04c-12.08,23.22-26.16,45.63-41.99,66.93-.29.41-.61.82-.9,1.23-9.3,15.34-22,24.28-38.48,30.32-48.89,18-93.29,42.77-136.63,71.38-10.45,6.9-23.02,8.41-35.38,4.53-2.24-.69-4.49-1.59-6.69-2.65-34.69-16.69-63.09-38.61-89.13-65.13-21.92-22.32-38.12-47.54-57.58-72.44,3.47,10.12,7.34,19.96,11.63,29.55-.04.04.04.04.04.04,16.49,37.22,39.01,70.48,66.6,99.09,9.75,10.16,20.16,19.71,31.14,28.61,3.55,2.86,7.14,6.37,9.59,9.84,1.55,2.16,2.65,4.37,3.02,6.41,1.43,8.2-2.12,16.77-8.24,22.45-43.05,39.75-80.27,83.29-113.74,131.16-4.61,6.41-10.2,10.98-16.45,13.75-9.06,4.16-19.55,4.69-30.4,2.08-.37-.08-.78-.21-1.14-.28-61.05-15.06-110.51-48.11-157.77-93.09,36.24,55.95,93.05,95.37,157.57,114.27,5.26,1.55,10.61,2.98,16,4.24,9.06,2.16,13.91,15.22,16.77,22.4,11.43,25.63,6.2,51.83-11.92,69.58-5.43,5.35-12,9.88-19.63,13.43-40.85,19.02-86.48,24.45-132.39,17.47-1.1-.16-2.2-.33-3.31-.53-91.49-14.73-194.29-64.19-246.61-142.35-8.65-12.94-14.98-26.57-19.02-40.52-11.59-39.75-4.65-82.23,19.55-119.29,23.47-35.79,54.36-63.75,90.31-89.62-1.18-40.44,3.39-79.58,18.49-117.9,39.3-102.11,130.14-146.83,235.27-158.63-26.48-139.28-9.63-326.23,154.59-367.08,31.95-7.96,63.46-10.57,96.8-10.57,81.09.04,155.04,24.45,203.03,80.56,5.06,5.96,9.84,12.24,14.33,18.94,13.34,19.91,23.91,43.09,31.1,69.74,108.23-80.56,242.04-96.19,335.13,11.75.9,1.14,1.8,2.24,2.65,3.39,55.95,72.31,74.76,168.18,44.93,250.82l-.02-.02Z"/>
    <path class="st3" d="M1186.01,1261.85c-21.69,17.31-13.79,29.13-27.75,62.15-1.23,2.91-7.86,7.59-10.91,7.16-13.77-1.92-42.66-61.27-49.96-76.55l-45.97-96.15c-3.44-7.2-3.62-19.19,1.87-26.48,143.39-190.52,364.05-323.41,609.32-300,16.16,1.54,25.89,16.24,27.37,31.07,5.56,43.4,13.47,84.53,27.07,125.68,9.66,26.19,21.12,49.09,38.9,73.86-194.5,16.26-415.03,75.66-569.93,199.27h-.01Z"/>
  </g>
  <g>
    <path d="M1520.27,749.6c-1.96.2-3.92.41-5.88.61-2.12.2-4.24.41-6.41.65-4.04.45-8.12.9-12.2,1.39-4.04.49-8.12,1.02-12.24,1.55h-.04c-.25.04-.53.08-.86.12-2.53.37-5.1.69-7.67,1.06-4.28.61-8.61,1.22-13.02,1.88-.86.12-1.71.25-2.57.41-12.08,23.22-26.16,45.58-41.95,66.89l-.04.04c2.16-.65,4.37-1.31,6.53-1.92,1.55-.45,3.14-.9,4.69-1.35,2.37-.65,4.73-1.31,7.06-1.92,2.69-.74,5.39-1.43,8.08-2.08,2.04-.53,4.04-1.02,6.08-1.51,5.79-1.43,11.63-2.73,17.47-3.96,4.12-.9,8.24-1.71,12.36-2.45,1.67-.33,3.35-.65,5.06-.94,3.26-.57,6.53-1.14,9.79-1.67v-.04c4.08-7.51,7.92-15.06,11.47-22.61,5.39-11.34,10.2-22.69,14.45-34.12v-.04h-.16,0ZM1240.11,907.77c-2.73,1.8-5.47,3.63-8.16,5.47,4.65-3.14,9.35-6.2,14.04-9.26l-5.88,3.8h0ZM1504.11,563.46c-.16-5.79-.49-11.55-1.02-17.3-.12-1.51-.29-2.98-.45-4.45-.16-1.47-.33-2.94-.53-4.41-.12-1.22-.28-2.41-.45-3.59-.2-1.55-.45-3.1-.65-4.61-1.14-7.31-2.57-14.61-4.33-21.87-.61-2.53-1.26-5.1-1.96-7.63-.45-1.76-.94-3.51-1.47-5.26-.94-3.18-1.92-6.37-2.98-9.55-.37-1.18-.74-2.33-1.14-3.47-.53-1.51-1.06-3.02-1.59-4.49-.9-2.41-1.8-4.9-2.78-7.31-2.12-5.39-4.41-10.73-6.9-16.08-1.02-2.2-2.08-4.37-3.14-6.57-.08-.16-.16-.28-.2-.45v-.04s-.04-.04-.04-.08l-.04-.04c-.04-.08-.08-.12-.12-.21-.08-.16-.16-.33-.25-.49-1.06-2.2-2.2-4.41-3.39-6.61,0,0-.04-.04-.04-.08-1.26-2.37-2.53-4.73-3.88-7.06-1.39-2.49-2.82-4.94-4.29-7.43-1.92-3.22-3.92-6.41-5.96-9.63,33.46,123.49-3.55,246.29-77.78,345.78-9.3,15.35-22.04,24.28-38.52,30.32-48.85,18-93.29,42.77-136.59,71.38-3.35,2.2-6.9,3.88-10.61,4.98-1.25.37-2.51.68-3.79.93-8.92,1.72-18.5.35-27.71-4.07-15.18-7.31-29.14-15.55-42.24-24.81-16.81-11.92-32.24-25.34-46.89-40.28-2.73-2.77-5.39-5.63-7.96-8.53-12.85-14.37-23.95-29.71-35.46-45.22-4.57-6.24-9.26-12.49-14.12-18.73,0,.04.04.12.04.16.69,1.92,1.35,3.84,2.04,5.71.49,1.39.98,2.73,1.51,4.08.57,1.55,1.18,3.14,1.79,4.69.45,1.18.94,2.41,1.43,3.59,1.27,3.18,2.61,6.33,4,9.47.86,1.96,1.71,3.92,2.61,5.83.61,1.39,1.27,2.78,1.92,4.12,2.41,5.06,4.94,10.04,7.55,14.98,1.31,2.45,2.65,4.9,4.04,7.31s2.78,4.82,4.2,7.18c1.14,1.88,2.28,3.76,3.43,5.59.12.28.33.57.53.86.2.29.37.53.57.86.04.08.08.21.16.29.08.16.16.32.25.45v.04c1.02,1.55,2.04,3.14,3.06,4.69.04.12.12.2.2.33,1.06,1.59,2.12,3.14,3.22,4.73s2.24,3.18,3.35,4.77c1.14,1.59,2.29,3.18,3.47,4.73-4.28-9.59-8.16-19.43-11.63-29.55,19.47,24.89,35.67,50.11,57.58,72.44,26.04,26.53,54.44,48.44,89.13,65.13,2.2,1.06,4.41,1.96,6.65,2.65h.04c1.65-1.25,3.31-2.46,4.99-3.67l1.56-1.14c1.81-1.33,3.65-2.65,5.5-3.95,2.32-1.65,4.64-3.29,6.97-4.91,4.98-3.47,10.04-6.86,15.1-10.2l5.88-3.8c1.55-1.02,3.14-2.04,4.73-3.02,1.55-1.02,3.14-2,4.73-2.98,4.33-2.73,8.65-5.35,13.06-7.96,1.63-.98,3.31-1.96,4.98-2.9,3.35-1.96,6.69-3.88,10.08-5.75,1.8-1.02,3.59-2.04,5.43-3.02,5.96-3.31,11.92-6.49,17.96-9.55,2.53-1.31,4.98-2.57,7.51-3.8,7.71-3.84,15.55-7.55,23.43-11.06,2.57-1.18,5.18-2.33,7.75-3.43,2.94-1.31,5.88-2.57,8.86-3.79,6.41-2.69,12.86-5.26,19.34-7.71,2.73-1.06,5.51-2.08,8.28-3.1,2.9-1.06,5.84-2.08,8.73-3.1,8.77-3.06,17.63-5.96,26.53-8.61l.04-.04c15.79-21.3,29.87-43.67,41.95-66.89-4.16.61-8.37,1.27-12.61,1.92,1.14-1.92,2.28-3.88,3.35-5.79,1.1-1.92,2.2-3.84,3.26-5.79,2.16-3.84,4.24-7.71,6.28-11.59s4-7.76,5.92-11.67c2.82-5.71,5.51-11.47,8-17.22.08-.21.16-.41.28-.61.78-1.84,1.55-3.67,2.33-5.55.86-1.92,1.63-3.88,2.45-5.83,1.59-3.92,3.1-7.8,4.53-11.71.69-1.96,1.39-3.92,2.08-5.88v-.04c1.12-3.17,2.18-6.36,3.19-9.55.23-.72.5-1.44.72-2.16.61-1.92,1.18-3.84,1.71-5.75,0-.08.04-.2.08-.29.53-1.75,1.02-3.51,1.51-5.26.69-2.61,1.39-5.18,2.04-7.76.61-2.24,1.14-4.53,1.67-6.77.86-3.75,1.63-7.51,2.37-11.22.45-2.25.86-4.45,1.22-6.69.41-2.41.82-4.82,1.14-7.22.86-5.55,1.51-11.06,2.04-16.61.25-2.57.45-5.1.61-7.67.2-2.9.37-5.79.45-8.73.12-3.51.2-6.98.2-10.45,0-2.61-.04-5.26-.12-7.88l.04-.02ZM1240.11,907.77c-2.73,1.8-5.47,3.63-8.16,5.47,4.65-3.14,9.35-6.2,14.04-9.26l-5.88,3.8h0ZM1212.03,927.2c-2.04,1.47-4.04,2.94-6.04,4.45,4.04-2.98,8.08-5.92,12.12-8.82-2.04,1.43-4.08,2.9-6.08,4.37ZM1240.11,907.77c-2.73,1.8-5.47,3.63-8.16,5.47,4.65-3.14,9.35-6.2,14.04-9.26l-5.88,3.8h0ZM1218.11,922.83c4.57-3.22,9.22-6.45,13.84-9.59-2.33,1.55-4.65,3.14-6.94,4.73-2.33,1.63-4.61,3.22-6.9,4.86h0ZM1205.99,931.65c4.04-2.98,8.08-5.92,12.12-8.82-2.04,1.43-4.08,2.9-6.08,4.37-2.04,1.47-4.04,2.94-6.04,4.45ZM1161.51,864.07c-15.18-7.31-29.14-15.55-42.24-24.81,13.1,9.26,27.06,17.59,42.24,24.85,9.21,4.43,18.77,5.76,27.71,4.03-8.92,1.72-18.5.35-27.71-4.07ZM1189.22,868.14c1.28-.25,2.54-.56,3.79-.93-1.25.37-2.51.68-3.79.93ZM1064.42,790.45c-12.85-14.37-23.95-29.71-35.46-45.22,11.47,15.51,22.57,30.89,35.46,45.22h0ZM1014.88,726.66c4.86,6.2,9.51,12.36,14.08,18.57-4.57-6.24-9.26-12.49-14.12-18.73,0,.04.04.12.04.16h0ZM977.78,1071.01c8.65.57,16.86-1.1,24-5.26-7.18,4.16-15.35,5.79-24,5.26ZM977.78,1071.01c-2.12-.16-4.28-.41-6.49-.82,2.16.41,4.33.69,6.49.82ZM1850.5,671.12c23.83-41.83,37.38-89.66,37.55-142.26.16-48.56-9.71-96.02-28.89-139.49-11.71-26.65-26.93-51.83-45.46-74.84-63.13-78.44-162.46-114.43-260.98-95.82-33.34,6.33-63.18,17.51-93.82,31.42-38.93-64.56-99.74-108.59-172.67-127.29-74.11-18.98-152.5-18.16-226.13,2.08-86.19,23.75-149.49,87.17-178.42,170.95-22.53,65.38-26.44,133.41-20.65,202.33-98.15,24.44-175.07,78.93-216.9,171.24-18,39.95-26.36,81.05-28.89,124.75-33.38,27.3-62.03,56.56-84.27,92.72-42.12,68.52-42.24,149.85,1.06,217.8,5.47,8.57,11.43,16.86,17.79,24.85,65.58,82.31,176.26,133.49,277.63,149.04,13.75,2.08,28.04,3.14,42.52,3.26,51.67.33,105.82-12.12,147.41-39.87.74-.45,1.47-.94,2.16-1.43,1.92,3.51,3.84,7.18,5.75,10.94,3.39,6.57,6.81,13.51,10.33,20.53,5.96,11.79,12.16,23.87,19.06,35.18,1.18,1.96,2.41,3.92,3.63,5.84,3.39,5.35,6.98,10.45,10.77,15.22,9.75,12.41,20.81,22.49,33.83,28.2,8.73,3.84,17.67,5.71,26.44,5.71,9.26.04,18.32-2.04,26.81-6.16,6.81-3.35,13.26-8,19.1-13.96,5.59-5.75,9.88-11.14,13.3-16.28v-.04c5.59-8.49,8.78-16.24,11.31-23.63,6.49-18.89,8.69-35.02,36.61-53.46,66.68-44.12,138.14-77.66,213.97-104.76,102.8-36.73,207.97-56.81,316.44-60.97,7.75-.33,15.59-.57,23.38-.69,11.43-.16,21.38-9.1,25.75-19.67,2.33-5.55,3.06-11.59,1.67-17.06-.25-1.1-.57-2.16-1.02-3.18-.2-.45-.37-.86-.61-1.31-2.86-6.57-6.2-12.69-9.79-18.61v-.04c-5.1-8.53-10.73-16.65-16.16-25.02-3.43-5.31-6.81-10.69-9.96-16.37-1.88-3.39-3.71-6.81-5.39-10.28-20.93-41.5-31.18-86.8-38.89-132.83-1.84-11.06-3.84-21.3-6.49-31.91-1.06-4.28-2.25-8.61-3.55-13.06,52.81-30.44,96.07-71.79,124.67-121.78h0ZM1736.64,710.95c-5.79,4.69-11.71,9.18-17.83,13.43-1.67,1.14-3.31,2.24-4.98,3.35-.57.41-1.14.78-1.72,1.14-.94.61-1.84,1.22-2.77,1.75-1.76,1.14-3.51,2.25-5.26,3.27-.86.53-1.71,1.06-2.57,1.55-2.57,1.55-5.18,3.02-7.8,4.45-.04.04-.08.04-.12.08,0,.04-.04.04-.04.04-.04.04-.08.04-.12.04-2.74,1.51-5.51,2.98-8.33,4.41-1.92.98-3.84,1.92-5.75,2.86-2.41,1.14-4.82,2.29-7.26,3.39-2.45,1.1-4.94,2.16-7.43,3.22l-31.26-4.16-12-1.59c16.16-10.73,37.14-24.94,58.32-41.58,2.12-1.67,4.24-3.35,6.37-5.06,8.49-6.86,16.9-14.08,25.02-21.63,2.04-1.88,4.04-3.8,6.04-5.71,39.75-38.56,69.33-84.56,51.75-129.65-1.06,16.04-5.88,31.38-13.26,45.87-1.47,2.9-3.02,5.79-4.69,8.61s-3.43,5.63-5.26,8.41c-5.47,8.24-11.71,16.2-18.41,23.83-2.2,2.53-4.49,5.06-6.81,7.51-2.28,2.45-4.65,4.86-7.06,7.26-9.55,9.51-19.55,18.41-29.38,26.57-37.63,29.22-77.13,54.07-120.06,74.56-5.79.12-11.47.32-17.14.61-2.86.12-5.67.28-8.49.49-1.27.08-2.53.16-3.75.24-1.55.08-3.14.21-4.69.33-.82.08-1.59.12-2.41.21-2.33.16-4.69.37-7.02.57h-.16c-1.96.2-3.92.41-5.88.61-2.12.2-4.24.41-6.41.65-4.04.45-8.12.9-12.2,1.39-4.04.49-8.12,1.02-12.24,1.55h-.04c-.25.04-.53.08-.86.12-2.53.37-5.1.69-7.67,1.06-4.28.61-8.61,1.22-13.02,1.88-.86.12-1.71.25-2.57.41-4.16.61-8.37,1.27-12.61,1.92,1.14-1.92,2.28-3.88,3.35-5.79,1.1-1.92,2.2-3.84,3.26-5.79,2.16-3.84,4.24-7.71,6.28-11.59s4-7.76,5.92-11.67c2.82-5.71,5.51-11.47,8-17.22.08-.21.16-.41.28-.61.78-1.84,1.55-3.67,2.33-5.55.86-1.92,1.63-3.88,2.45-5.83,1.59-3.92,3.1-7.8,4.53-11.71.69-1.96,1.39-3.92,2.08-5.88v-.04c1.12-3.17,2.18-6.36,3.19-9.55.23-.72.5-1.44.72-2.16.61-1.92,1.18-3.84,1.71-5.75,0-.08.04-.2.08-.29.53-1.75,1.02-3.51,1.51-5.26.69-2.61,1.39-5.18,2.04-7.76.61-2.24,1.14-4.53,1.67-6.77.86-3.75,1.63-7.51,2.37-11.22.45-2.25.86-4.45,1.22-6.69.41-2.41.82-4.82,1.14-7.22.86-5.55,1.51-11.06,2.04-16.61.25-2.57.45-5.1.61-7.67.2-2.9.37-5.79.45-8.73.12-3.51.2-6.98.2-10.45,0-2.61-.04-5.26-.12-7.88-.16-5.79-.49-11.55-1.02-17.3-.12-1.51-.29-2.98-.45-4.45-.16-1.47-.33-2.94-.53-4.41-.12-1.22-.28-2.41-.45-3.59-.2-1.55-.45-3.1-.65-4.61-1.14-7.31-2.57-14.61-4.33-21.87-.61-2.53-1.26-5.1-1.96-7.63-.45-1.76-.94-3.51-1.47-5.26-.94-3.18-1.92-6.37-2.98-9.55-.37-1.18-.74-2.33-1.14-3.47-.53-1.51-1.06-3.02-1.59-4.49-.9-2.41-1.8-4.9-2.78-7.31-2.12-5.39-4.41-10.73-6.9-16.08-1.02-2.2-2.08-4.37-3.14-6.57-.08-.16-.16-.28-.2-.45v-.04s-.04-.04-.04-.08l-.04-.04c-.04-.08-.08-.12-.12-.21-.08-.16-.16-.33-.25-.49-1.06-2.2-2.2-4.41-3.39-6.61,0,0-.04-.04-.04-.08-1.26-2.37-2.53-4.73-3.88-7.06-1.39-2.49-2.82-4.94-4.29-7.43-1.92-3.22-3.92-6.41-5.96-9.63,33.46,123.49-3.55,246.29-77.78,345.78-9.3,15.35-22.04,24.28-38.52,30.32-48.85,18-93.29,42.77-136.59,71.38-3.35,2.2-6.9,3.88-10.61,4.98-1.25.37-2.51.68-3.79.93-8.92,1.72-18.5.35-27.71-4.07-15.18-7.31-29.14-15.55-42.24-24.81-16.81-11.92-32.24-25.34-46.89-40.28-2.73-2.77-5.39-5.63-7.96-8.53-12.85-14.37-23.95-29.71-35.46-45.22-4.57-6.24-9.26-12.49-14.12-18.73,0,.04.04.12.04.16.69,1.92,1.35,3.84,2.04,5.71.49,1.39.98,2.73,1.51,4.08.57,1.55,1.18,3.14,1.79,4.69.45,1.18.94,2.41,1.43,3.59,1.27,3.18,2.61,6.33,4,9.47.86,1.96,1.71,3.92,2.61,5.83.61,1.39,1.27,2.78,1.92,4.12,2.41,5.06,4.94,10.04,7.55,14.98,1.31,2.45,2.65,4.9,4.04,7.31s2.78,4.82,4.2,7.18c1.14,1.88,2.28,3.76,3.43,5.59.12.28.33.57.53.86.2.29.37.53.57.86.04.08.08.21.16.29.08.16.16.32.25.45v.04c1.02,1.55,2.04,3.14,3.06,4.69.04.12.12.2.2.33,1.06,1.59,2.12,3.14,3.22,4.73s2.24,3.18,3.35,4.77c1.14,1.59,2.29,3.18,3.47,4.73,0,.04.04.04.04.04,1.06,1.47,2.12,2.9,3.22,4.32,1.23,1.67,2.49,3.27,3.75,4.86,1.14,1.47,2.33,2.94,3.55,4.41,1.96,2.41,3.96,4.78,5.96,7.1,2.04,2.37,4.08,4.69,6.2,6.98,4.16,4.57,8.49,9.02,12.9,13.34,1.02,1.02,2.04,2,3.06,2.98,1.8,1.8,3.63,3.51,5.51,5.14,2.16,2,4.37,3.96,6.57,5.92,3.02,2.65,6.08,5.22,9.22,7.75,1.47,1.18,2.94,2.45,4.28,3.8.69.61,1.39,1.31,2.04,2.04,3.22,3.43,5.71,7.1,6.28,10.41.2,1.27.33,2.53.33,3.8,0,.65-.04,1.31-.12,1.96-.04.37-.08.74-.12,1.1,0,.08,0,.16-.04.2-.08.45-.12.94-.24,1.39-.04.25-.08.53-.16.78-.04.25-.12.45-.16.69h-.04c-.12.53-.25,1.02-.45,1.47-.04.12-.08.25-.12.37-.24.65-.45,1.26-.73,1.88-.41.81-.82,1.63-1.27,2.41-.12.2-.25.41-.37.61-.04.08-.08.16-.12.25-.2.37-.45.69-.69,1.02-.04.08-.12.2-.2.28-.29.41-.61.82-.94,1.23-.16.2-.33.41-.49.61-.2.25-.45.53-.65.78-.53.57-1.06,1.14-1.63,1.63-43.01,39.75-80.27,83.29-113.74,131.16-1.06,1.51-2.2,2.9-3.39,4.2-.61.65-1.18,1.27-1.8,1.84-2.41,2.41-5.06,4.41-7.87,6.04-7.18,4.16-15.35,5.79-24,5.26-2.12-.16-4.28-.41-6.49-.82-1.1-.2-2.2-.41-3.31-.69-11.55-2.82-22.69-6.24-33.46-10.28-3.55-1.35-7.1-2.77-10.61-4.24-42.24-17.75-79.17-44.89-114.84-78.84,3.67,5.67,7.59,11.18,11.67,16.49,2.73,3.55,5.51,7.06,8.41,10.45,4.37,5.1,8.9,10,13.59,14.73,37.67,37.95,86.6,64.28,139.89,76.84h.04c.53.12,1.02.28,1.51.49.2.08.41.16.61.28.37.12.69.28,1.02.53.12.04.2.08.28.16.41.21.78.49,1.18.82h.04c.45.33.9.65,1.31,1.06.27.27.29.3.04.08-.37-.33,0-.04.04,0,.45.37.86.82,1.27,1.27v.04s0-.04.04,0c.04,0,.04.04.08.08.37.45.74.86,1.06,1.35.16.12.25.29.37.45,1.02,1.35,1.96,2.86,2.82,4.37.12.2.21.41.33.57.2.41.41.78.61,1.18.29.57.53,1.18.82,1.71.25.57.53,1.18.78,1.71.12.2.2.41.28.61.16.37.33.74.45,1.1.25.53.49,1.1.65,1.59.45,1.06.82,2.04,1.18,2.94,1.39,3.1,2.53,6.2,3.39,9.31v.04h.04c.33,1.14.65,2.33.9,3.47.33,1.39.61,2.82.86,4.24.12.78.25,1.59.33,2.37.08.57.16,1.14.21,1.71.32,3.18.41,6.28.2,9.39-.04.74-.08,1.51-.16,2.25-.16,1.84-.45,3.67-.78,5.47-.21,1.18-.49,2.37-.78,3.51-.29,1.18-.61,2.33-.98,3.47,0,.12-.04.21-.08.33-.12.37-.25.74-.37,1.1,0,.08-.04.16-.12.25-.29.86-.61,1.67-.94,2.49-.28.82-.65,1.63-1.02,2.41-.33.65-.65,1.35-1.02,2-.16.33-.33.69-.49,1.02-.08.2-.21.41-.33.61-.21.37-.41.69-.61,1.06-.04.12-.08.25-.21.37-.28.53-.57.98-.9,1.47-.08.21-.16.37-.33.53-.11.11-.14.13-.08.08l-.04.04c-.2.33-.37.65-.61.98-.08.16-.2.33-.33.49-.16.29-.37.57-.61.86-.2.33-.41.65-.65.94-.12.21-.29.41-.45.57-.28.41-.57.78-.9,1.14-.49.69-1.06,1.39-1.67,2.04-.61.69-1.22,1.35-1.88,2-.69.78-1.43,1.51-2.2,2.25,0,0-.04.08-.08.08-.86.86-1.8,1.67-2.73,2.49-.12.08-.25.2-.37.28-.98.82-1.96,1.59-3.02,2.37-2.61,1.96-5.39,3.71-8.37,5.35-1.39.78-2.86,1.51-4.37,2.2-40.89,19.02-86.52,24.44-132.43,17.47-2.73-.45-5.51-.86-8.29-1.35-.12-.04-.25-.04-.41-.08-2.9-.49-5.79-1.06-8.73-1.63-5.43-1.06-10.9-2.24-16.37-3.59-1.92-.45-3.84-.94-5.75-1.43-1.96-.49-3.96-1.02-5.92-1.51-5.84-1.55-11.63-3.26-17.47-5.1-3.22-1.02-6.45-2.08-9.67-3.18-4.65-1.51-9.26-3.18-13.88-4.94-1.31-.49-2.65-.98-3.96-1.51-2.57-.98-5.1-2-7.63-3.06-2.04-.78-4.04-1.63-6.04-2.49-1.43-.61-2.94-1.27-4.37-1.92-1.1-.45-2.25-.94-3.35-1.47-2.9-1.31-5.79-2.65-8.69-4.04-1.63-.81-3.26-1.59-4.9-2.41-3.26-1.55-6.49-3.18-9.67-4.94-2.2-1.1-4.41-2.29-6.57-3.51-.21-.08-.37-.16-.53-.29-2.65-1.47-5.26-2.94-7.87-4.49-4.37-2.49-8.65-5.1-12.85-7.84-2.69-1.67-5.31-3.43-7.92-5.18-2.65-1.76-5.22-3.55-7.79-5.39-1.27-.86-2.49-1.75-3.71-2.73-1.59-1.1-3.14-2.29-4.69-3.47-2.25-1.67-4.41-3.35-6.57-5.14-.78-.61-1.55-1.23-2.28-1.84-4.41-3.55-8.69-7.26-12.81-11.02-2.16-2-4.29-3.96-6.37-6-3.43-3.31-6.73-6.69-9.92-10.16-1.22-1.27-2.37-2.49-3.51-3.79-3.35-3.71-6.57-7.51-9.63-11.39-.78-.98-1.55-1.96-2.33-2.98-.86-1.06-1.67-2.12-2.45-3.22-.9-1.18-1.76-2.33-2.61-3.51-.2-.29-.41-.53-.57-.82-.08-.08-.12-.12-.12-.2-1.27-1.76-2.49-3.51-3.67-5.26-1.02-1.55-2.04-3.06-2.98-4.65-1.1-1.8-2.2-3.59-3.22-5.43-.04-.04-.04-.08-.08-.12-.7-1.27-1.43-2.57-2.08-3.88-2.49-4.73-4.69-9.59-6.61-14.49-.64-1.65-1.24-3.31-1.82-4.97-.85-2.47-1.62-4.89-2.34-7.36-.37-1.27-.7-2.53-1.02-3.75-.25-.9-.49-1.76-.65-2.65-.66-2.78-1.17-5.57-1.65-8.37-.1-.61-.21-1.22-.3-1.83-.13-.83-.24-1.64-.37-2.46-.26-1.82-.46-3.64-.64-5.46-.12-1.05-.27-2.08-.34-3.14-.04-.64-.04-1.28-.08-1.95v-.15c-.12-1.8-.16-3.64-.2-5.44,0-.53-.04-1.06-.04-1.59v-2.83c.04-2.96.13-5.93.37-8.89.29-3.43.65-6.81,1.14-10.2.25-1.59.49-3.18.81-4.77.04-.33.12-.65.21-.98.61-2.98,1.27-5.92,2.04-8.9.49-2,1.06-3.96,1.67-5.96.49-1.59.98-3.18,1.55-4.78.12-.37.25-.73.41-1.1.57-1.63,1.18-3.31,1.84-4.94.65-1.71,1.39-3.47,2.16-5.22.57-1.31,1.14-2.57,1.76-3.88.04-.12.12-.28.25-.45.57-1.22,1.14-2.45,1.8-3.63,1.06-2.2,2.25-4.41,3.51-6.61l2.2-3.8c1.06-1.76,2.12-3.47,3.27-5.18,1.31-2,2.61-3.96,4-5.92.25-.37.49-.73.78-1.1,1.43-2.04,2.86-4.04,4.37-6.04,4.73-6.37,9.71-12.49,14.94-18.36,1.43-1.67,2.9-3.31,4.45-4.9,4.82-5.22,9.88-10.33,15.1-15.22,1.71-1.67,3.47-3.27,5.26-4.9,1.55-1.43,3.1-2.82,4.69-4.2,6.45-5.67,13.14-11.18,20.08-16.53,1.76-1.43,3.59-2.77,5.39-4.12,3.67-2.82,7.47-5.59,11.26-8.33-.16-5.75-.2-11.51-.12-17.26,0-.94,0-1.92.04-2.86.04-1.8.08-3.63.16-5.43.08-2.24.16-4.49.33-6.73.08-1.51.16-3.06.28-4.61,0-.2,0-.37.04-.57.08-1.27.2-2.49.28-3.71,0-.08,0-.21.04-.29.16-2.77.45-5.51.78-8.24,0-.08.04-.16.04-.25.16-1.47.33-2.98.53-4.45.41-3.31.86-6.57,1.43-9.84.25-1.59.53-3.18.82-4.73.41-2.33.86-4.61,1.35-6.9.12-.82.28-1.59.49-2.41.16-.73.33-1.43.49-2.16,0-.21.08-.41.12-.61.57-2.65,1.23-5.26,1.92-7.88.49-1.88.98-3.75,1.55-5.63.49-1.8,1.02-3.55,1.59-5.35.08-.29.16-.53.25-.82.41-1.43.86-2.77,1.35-4.16,1.43-4.37,2.98-8.65,4.69-12.98.86-2.2,1.71-4.37,2.61-6.53.25-.65.53-1.31.81-1.96.12-.28.25-.61.41-.9,2.25-5.22,4.61-10.24,7.14-15.1.04-.12.08-.29.21-.41,1.14-2.24,2.33-4.45,3.51-6.57.12-.29.28-.53.41-.78.45-.82.94-1.59,1.39-2.41,1.02-1.71,2.04-3.43,3.06-5.1,1.63-2.69,3.31-5.3,5.06-7.88.04-.04.08-.12.12-.16.49-.78.98-1.55,1.51-2.29.32-.49.69-.98,1.06-1.47.37-.61.82-1.18,1.23-1.75.49-.69.98-1.39,1.51-2.04.9-1.27,1.84-2.49,2.78-3.71.28-.33.53-.69.78-1.02,1.63-2.12,3.27-4.12,4.98-6.16,1.18-1.39,2.37-2.78,3.55-4.12.78-.94,1.59-1.84,2.45-2.73.37-.37.69-.74,1.02-1.1,1.02-1.14,2.08-2.24,3.18-3.35.37-.45.78-.86,1.18-1.27.28-.29.57-.61.9-.86.65-.74,1.31-1.39,2-2.04.37-.37.78-.78,1.18-1.14,3.26-3.18,6.57-6.2,10-9.14,1.1-1.02,2.29-1.96,3.43-2.94,1.06-.9,2.16-1.75,3.26-2.57.12-.12.25-.25.41-.33.65-.53,1.31-1.06,1.96-1.55.49-.37.94-.74,1.43-1.06,2.37-1.88,4.78-3.63,7.23-5.35,1.22-.86,2.45-1.71,3.71-2.53,1.23-.86,2.49-1.67,3.75-2.49,1.23-.86,2.49-1.63,3.8-2.41.33-.25.69-.45,1.02-.65,1.88-1.14,3.75-2.29,5.63-3.35,3.35-2,6.78-3.88,10.24-5.67,1.43-.81,2.9-1.55,4.37-2.24.33-.2.69-.37,1.06-.53.41-.21.78-.41,1.18-.57l3.06-1.47c1.71-.86,3.43-1.63,5.18-2.41.08,0,.16-.04.29-.12,2.57-1.14,5.1-2.29,7.71-3.31.24-.08.49-.2.73-.28,2.57-1.1,5.18-2.12,7.8-3.1.28-.12.57-.2.81-.28,2.61-1.02,5.22-1.92,7.88-2.86.28-.08.57-.2.86-.28.78-.33,1.59-.57,2.41-.82,3.71-1.26,7.43-2.45,11.22-3.55.49-.16,1.02-.33,1.55-.45.9-.25,1.8-.53,2.73-.78.69-.2,1.43-.41,2.12-.61,2.29-.65,4.53-1.22,6.81-1.8.08,0,.16-.04.25-.04,2.2-.57,4.41-1.1,6.61-1.63.9-.25,1.8-.45,2.69-.61.53-.16,1.06-.25,1.59-.37,2.57-.61,5.18-1.14,7.8-1.67,2.24-.45,4.53-.9,6.77-1.31.74-.12,1.43-.29,2.16-.37.53-.12,1.02-.2,1.51-.28,1.35-.25,2.65-.49,4-.69,1.59-.29,3.14-.53,4.69-.74.45-.12.94-.16,1.39-.25,2.78-.45,5.55-.81,8.37-1.18,3.22-.45,6.49-.86,9.8-1.22-.86-4.53-1.67-9.14-2.45-13.75-.45-2.65-.86-5.3-1.27-8-.53-3.35-.98-6.65-1.43-10.04-.57-4.24-1.1-8.53-1.59-12.85-.04-.33-.07-.68-.11-1.01-.44-4.01-.84-8.03-1.2-12.09-.2-2.2-.37-4.41-.53-6.61-.12-1.22-.21-2.45-.28-3.71-.16-1.92-.29-3.88-.37-5.79-.1-1.67-.16-3.35-.25-5.02-.3-6.08-.52-12.18-.61-18.28v-1.52c-.07-6.34-.05-12.7.13-19.05,0-1.59.04-3.14.12-4.69.04-1.31.08-2.61.16-3.96.08-1.96.16-3.88.28-5.79.12-2.49.29-4.98.49-7.47.21-2.45.37-4.94.61-7.34.29-3.1.57-6.2.94-9.26.21-1.63.37-3.35.61-4.98.45-3.84.98-7.63,1.59-11.39.37-2.33.74-4.65,1.14-6.98.08-.45.16-.9.25-1.35.49-2.61.98-5.26,1.47-7.88,1.43-6.94,3.02-13.79,4.86-20.53.33-1.35.73-2.69,1.1-4,.74-2.65,1.51-5.26,2.33-7.87.08-.25.16-.53.25-.78.33-1.1.69-2.2,1.06-3.27,3.3-10.04,7.1-19.79,11.47-29.22.49-1.06.98-2.12,1.51-3.18,3.59-7.43,7.51-14.61,11.84-21.55.81-1.35,1.67-2.65,2.53-3.96.33-.57.69-1.1,1.1-1.67.86-1.31,1.71-2.61,2.65-3.92,4.78-6.86,9.96-13.39,15.55-19.59,1.1-1.22,2.25-2.49,3.43-3.67,1.35-1.39,2.74-2.82,4.12-4.2.57-.61,1.18-1.18,1.8-1.75.33-.33.65-.61.98-.94,1.47-1.35,2.98-2.73,4.49-4.08,1.06-.98,2.16-1.96,3.31-2.86.33-.33.65-.57.98-.86.61-.53,1.27-1.06,1.92-1.55.73-.61,1.47-1.18,2.2-1.8,2.29-1.84,4.65-3.59,7.06-5.31,1.39-1.02,2.78-1.96,4.24-2.9.25-.16.53-.37.78-.53,2.04-1.39,4.16-2.73,6.28-4,.53-.33,1.06-.65,1.63-.98.12-.08.25-.16.37-.2.57-.37,1.18-.74,1.76-1.06.9-.53,1.8-1.06,2.69-1.51.61-.37,1.23-.74,1.88-1.06.45-.25.9-.49,1.39-.73,1.02-.57,2.08-1.1,3.14-1.63,2.69-1.39,5.39-2.69,8.16-3.96.33-.16.65-.33.98-.45,3.02-1.35,6.08-2.65,9.22-3.84,1.18-.49,2.37-.94,3.59-1.39.57-.2,1.14-.41,1.71-.61.33-.12.65-.25.98-.37,1.47-.53,2.94-1.06,4.45-1.51.28-.12.61-.25.9-.33,1.39-.49,2.82-.9,4.29-1.35,1.59-.53,3.22-.98,4.9-1.43.41-.08.78-.2,1.18-.32.33-.08.65-.21.98-.29.16-.04.33-.12.53-.16,1.39-.37,2.86-.73,4.29-1.1,8-2,15.96-3.63,23.91-4.98,23.91-4.08,47.87-5.55,72.89-5.55,3.59,0,7.18.04,10.77.16,1.96.04,3.96.12,5.92.21,3.35.12,6.74.33,10.04.57,1.76.12,3.51.24,5.26.41,3.31.29,6.61.61,9.88.98.74.08,1.39.16,2.08.25,2.04.2,4.08.49,6.12.78,2.37.33,4.65.65,6.98,1.02.28.04.61.08.9.12,3.39.53,6.77,1.14,10.08,1.84,7.47,1.47,14.81,3.18,22.04,5.14,2.29.65,4.57,1.31,6.82,2,3.39,1.02,6.73,2.12,10.08,3.26,1.55.53,3.1,1.06,4.65,1.67,1.22.41,2.45.9,3.63,1.35.32.12.65.25.98.41.94.37,1.92.73,2.86,1.14,2.12.82,4.2,1.67,6.24,2.57.2.12.41.21.61.29,1.96.86,3.96,1.75,5.88,2.69.78.37,1.59.74,2.37,1.14,1.47.69,2.94,1.39,4.37,2.16.57.29,1.14.57,1.71.86.81.45,1.63.86,2.45,1.31.04.04.08.08.12.08.78.41,1.55.81,2.33,1.26.65.33,1.31.7,1.92,1.06,1.06.57,2.08,1.18,3.1,1.8,4.73,2.82,9.39,5.75,13.96,8.94.53.37,1.06.74,1.59,1.1.49.33.98.69,1.47,1.1,3.55,2.53,7.02,5.18,10.41,8,1.92,1.55,3.75,3.14,5.59,4.73,2.37,2.12,4.73,4.33,7.06,6.57.45.41.9.86,1.35,1.31.49.49.98.98,1.47,1.51.41.33.78.74,1.18,1.14.04.04.12.12.16.2.61.61,1.18,1.23,1.8,1.88.16.16.37.37.57.61.94.98,1.88,1.96,2.78,2.98.9.98,1.8,2,2.61,3.02,1.35,1.55,2.69,3.14,4,4.73,1.63,2,3.22,4.08,4.77,6.16.33.33.57.69.86,1.06.16.2.33.45.45.65,1.39,1.88,2.74,3.8,4.08,5.75.57.82,1.14,1.67,1.72,2.49.61.98,1.27,1.96,1.88,2.94,1.27,1.96,2.49,3.96,3.67,6.04.41.61.78,1.22,1.14,1.88.45.69.86,1.43,1.23,2.16,1.92,3.35,3.71,6.78,5.47,10.33.82,1.63,1.63,3.31,2.41,4.98.04.04.04.12.08.16,1.31,2.78,2.53,5.63,3.76,8.53,1.06,2.61,2.12,5.26,3.14,7.96.37.94.7,1.92,1.06,2.86,2.45,6.73,4.61,13.71,6.57,20.93,1.8-1.35,3.59-2.65,5.39-3.92.53-.41,1.02-.78,1.55-1.1,2.08-1.47,4.12-2.9,6.2-4.33,2-1.35,4-2.69,6-4,2.53-1.71,5.06-3.35,7.63-4.9,2-1.26,4-2.49,6.04-3.67,2.53-1.55,5.1-3.02,7.67-4.45,1.88-1.06,3.75-2.08,5.63-3.1,2-1.1,4.04-2.16,6.08-3.18.25-.16.49-.28.74-.41,2.2-1.14,4.41-2.24,6.65-3.31,2.25-1.1,4.53-2.16,6.78-3.18.28-.12.53-.25.81-.37,1.55-.69,3.14-1.39,4.73-2.08,6.45-2.82,12.98-5.39,19.51-7.67,1.84-.69,3.67-1.35,5.55-1.92,3.67-1.22,7.39-2.41,11.14-3.43,1.31-.41,2.61-.78,3.92-1.1,2-.53,3.96-1.06,5.96-1.55,2.12-.49,4.24-1.02,6.37-1.47,5.39-1.18,10.73-2.2,16.08-2.98.94-.16,1.88-.28,2.77-.41,2.53-.37,5.06-.69,7.55-.94.9-.12,1.8-.21,2.65-.29,1.23-.12,2.45-.25,3.63-.32,1.23-.08,2.45-.16,3.63-.25,1.1-.12,2.2-.16,3.31-.21,1.43-.08,2.86-.16,4.28-.16,4.08-.16,8.16-.16,12.24-.04,1.8.04,3.63.08,5.43.2,1.96.08,3.92.21,5.88.37,1.63.12,3.27.25,4.9.45,1.8.16,3.59.37,5.39.61,1.76.2,3.55.49,5.35.78,1.43.2,2.86.45,4.33.74,2.29.41,4.53.86,6.81,1.35,2.29.49,4.53,1.02,6.78,1.59,2.29.57,4.53,1.18,6.77,1.84,2.25.65,4.49,1.35,6.74,2.08,1.06.33,2.08.7,3.14,1.06,7.14,2.49,14.2,5.43,21.18,8.82,1.35.65,2.65,1.31,3.96,2,1.23.61,2.41,1.23,3.59,1.88,1.72.9,3.43,1.88,5.14,2.86,2.45,1.39,4.86,2.86,7.26,4.41,1.51.94,3.02,1.92,4.49,2.94,1.88,1.23,3.71,2.53,5.55,3.84,1.47,1.06,2.94,2.12,4.41,3.22.57.41,1.14.86,1.76,1.35,1.43,1.06,2.82,2.16,4.24,3.35,1.55,1.23,3.1,2.53,4.65,3.88,3.1,2.65,6.16,5.39,9.22,8.28,1.47,1.39,2.98,2.86,4.45,4.33,1.1,1.1,2.16,2.2,3.22,3.31,1.1,1.1,2.12,2.2,3.18,3.35,1.22,1.26,2.41,2.57,3.55,3.92,1.14,1.22,2.2,2.45,3.3,3.71,2.08,2.61,4.12,5.26,6.12,7.96,1.02,1.35,2,2.69,2.98,4.08,4.86,6.78,9.39,13.75,13.59,20.9.78,1.31,1.55,2.65,2.29,3.96.12.21.25.37.33.57.78,1.39,1.55,2.73,2.29,4.12.81,1.43,1.59,2.9,2.33,4.37,1.27,2.33,2.45,4.65,3.55,7.02.12.12.16.29.25.41l.25.49c.73,1.51,1.43,3.02,2.12,4.57.65,1.35,1.27,2.73,1.84,4.08.94,2.04,1.8,4.08,2.65,6.16,1.67,4,3.26,8.08,4.73,12.16.57,1.55,1.1,3.06,1.63,4.61,1.51,4.37,2.86,8.73,4.12,13.14.16.49.33.98.45,1.51.37,1.22.69,2.49,1.02,3.71.04.16.08.33.12.45l.49,1.84c.2.74.37,1.47.57,2.2.12.49.25.98.33,1.47.94,3.8,1.8,7.63,2.53,11.47.33,1.63.65,3.27.94,4.86.04.21.08.37.08.57.28,1.51.57,3.06.78,4.57.04.37.12.74.16,1.1.2,1.27.37,2.53.57,3.8.04.12.04.25.04.32.08.53.16,1.06.2,1.59.16,1.02.29,2.04.41,3.06.12.9.21,1.76.28,2.61.08.69.16,1.43.25,2.12.08.81.16,1.59.2,2.41.16,1.59.28,3.18.41,4.73.12,1.47.2,2.9.28,4.37.08,1.18.12,2.33.2,3.47.04.53.08,1.02.08,1.55.04,1.1.08,2.2.08,3.31v.86c.04,1.92.08,3.84.08,5.75v2.41c0,1.1-.04,2.16-.08,3.27,0,1.47-.04,2.94-.12,4.37-.04,1.51-.12,2.98-.21,4.49-.28,4.65-.69,9.3-1.22,13.91,0,.29-.04.57-.08.86-.12.98-.2,1.92-.37,2.9-.08.65-.16,1.27-.25,1.92-.04.33-.08.65-.12.98-.24,1.55-.45,3.1-.73,4.65-.04.37-.08.78-.16,1.14-.2,1.31-.45,2.57-.69,3.88-.41,2.08-.82,4.16-1.27,6.24-.08.49-.16.94-.28,1.43-.53,2.49-1.1,4.94-1.76,7.39-.21.78-.37,1.55-.61,2.28-.21.9-.45,1.8-.69,2.69-.29.94-.53,1.88-.82,2.82-.2.78-.45,1.55-.65,2.33-.33,1.06-.65,2.12-1.02,3.18-.37,1.22-.73,2.45-1.14,3.67-.21.61-.45,1.18-.65,1.8-.37,1.06-.74,2.12-1.1,3.18-.25.73-.53,1.47-.82,2.2-.12.45-.32.94-.49,1.39-.25.69-.53,1.43-.82,2.12-.25.61-.49,1.27-.78,1.88-.2.57-.41,1.1-.65,1.67-.08.25-.2.49-.28.73-.9,2.12-1.8,4.24-2.78,6.33-.28.65-.57,1.27-.9,1.92-.45.98-.9,2-1.39,2.98-.33.65-.33.68,0,.08-.37.74-.7,1.47-1.06,2.16-1.76,3.47-3.55,6.94-5.47,10.37-.21.41-.41.81-.65,1.22-1.71,3.02-3.47,6-5.35,8.94-.12.25-.25.45-.41.69-.9,1.43-1.8,2.86-2.77,4.29-1.1,1.67-2.2,3.31-3.39,4.94-.45.65-.9,1.27-1.35,1.92-.53.78-1.1,1.51-1.67,2.25-.28.41-.61.81-.9,1.22-.41.57-.82,1.14-1.27,1.71-.53.65-1.02,1.35-1.55,2-2.69,3.47-5.51,6.9-8.45,10.24-.78.9-1.59,1.8-2.37,2.69-.49.57-.98,1.1-1.51,1.63-.45.53-.94,1.06-1.43,1.59-.9.98-1.84,1.96-2.78,2.94-1.43,1.51-2.9,2.98-4.41,4.45h-.04c-5.02,4.98-10.2,9.71-15.51,14.2-1.59,1.39-3.22,2.78-4.9,4.08l-.06-.08ZM1097.68,1258.57c-.21-.28-.37-.61-.53-.94-1.8-3.39-3.59-6.69-5.26-9.92-.7-1.39-1.43-2.69-2.08-4.04-1.14-2.2-2.2-4.29-3.18-6.28-.37-.69-.7-1.39-1.06-2.08-.65-1.35-1.31-2.65-1.88-3.84-.61-1.22-1.14-2.37-1.67-3.39-.25-.41-.41-.78-.57-1.14-.32-.74-.65-1.43-.98-2.04-.12-.33-.28-.61-.41-.9l-45.99-96.15c-3.43-7.18-3.63-19.18,1.88-26.49,4.12-5.51,8.33-10.94,12.61-16.32,1.8-2.33,3.67-4.65,5.55-6.98.28-.37.57-.74.9-1.1,2.49-3.06,4.98-6.12,7.51-9.14,3.22-3.88,6.45-7.71,9.71-11.51.9-1.02,1.76-2.04,2.65-3.06,2.98-3.39,5.92-6.73,8.94-10.08,3.27-3.67,6.57-7.31,9.92-10.9,1.67-1.8,3.35-3.59,5.06-5.39,1.67-1.76,3.31-3.47,4.98-5.18.37-.41.78-.86,1.18-1.27,1.18-1.31,2.41-2.53,3.67-3.79l1.23-1.23c.49-.49.98-1.02,1.43-1.51,1.92-1.96,3.88-3.92,5.79-5.79,4.86-4.81,9.79-9.59,14.73-14.32,2.33-2.16,4.61-4.33,6.94-6.45,2.69-2.53,5.39-4.98,8.16-7.47,8.08-7.26,16.32-14.4,24.69-21.34.28-.25.57-.45.86-.69,2.82-2.33,5.63-4.61,8.45-6.9,3.02-2.41,6.04-4.82,9.06-7.14.25-.21.49-.41.74-.57,2.2-1.71,4.37-3.43,6.57-5.06,1.47-1.14,2.9-2.25,4.37-3.31,1.43-1.1,2.86-2.2,4.33-3.22h.04c4.02-2.97,8.05-5.89,12.07-8.78.05-.03.1-.07.15-.1,3.66-2.58,7.38-5.14,11.08-7.68,1.86-1.27,3.72-2.53,5.6-3.78,3.69-2.46,7.38-4.9,11.1-7.32,1.55-1.02,3.14-2.04,4.73-3.02,1.55-1.02,3.14-2,4.73-2.98,4.33-2.73,8.65-5.35,13.06-7.96,1.63-.98,3.31-1.96,4.98-2.9,3.35-1.96,6.69-3.88,10.08-5.75,1.8-1.02,3.59-2.04,5.43-3.02,5.96-3.31,11.92-6.49,17.96-9.55,2.53-1.31,4.98-2.57,7.51-3.8,7.71-3.84,15.55-7.55,23.43-11.06,2.57-1.18,5.18-2.33,7.75-3.43,2.94-1.31,5.88-2.57,8.86-3.79,6.41-2.69,12.86-5.26,19.34-7.71,2.73-1.06,5.51-2.08,8.28-3.1,2.9-1.06,5.84-2.08,8.73-3.1,8.77-3.06,17.63-5.96,26.53-8.61,2.16-.65,4.37-1.31,6.53-1.92,1.55-.45,3.14-.9,4.69-1.35,2.37-.65,4.73-1.31,7.06-1.92,2.69-.74,5.39-1.43,8.08-2.08,2.04-.53,4.04-1.02,6.08-1.51,5.79-1.43,11.63-2.73,17.47-3.96,4.12-.9,8.24-1.71,12.36-2.45,1.67-.33,3.35-.65,5.06-.94,3.26-.57,6.53-1.14,9.79-1.67,1.16-.2,2.32-.38,3.49-.55,4.33-.68,8.66-1.35,13.04-1.9.49-.08.98-.16,1.47-.21,3.88-.53,7.79-.98,11.71-1.43,1.76-.21,3.55-.37,5.31-.57,1.96-.21,3.96-.41,5.92-.57,1.96-.16,3.92-.33,5.88-.49,3.92-.32,7.87-.61,11.83-.86,3.96-.24,7.92-.45,11.92-.61,3.75-.16,7.51-.28,11.26-.37.37-.04.73-.04,1.1-.04,3.92-.08,7.88-.12,11.79-.12,3.02,0,6.08.04,9.14.08,2.77.04,5.59.12,8.37.2,3.06.08,6.16.21,9.22.37.37,0,.78,0,1.18.04,2.9.12,5.79.28,8.69.49,2.49.12,4.98.33,7.51.49,1.59.12,3.22.25,4.86.41,2.37.16,4.69.41,7.06.61,1.02.08,2,.25,2.94.45.94.16,1.84.41,2.73.69.65.2,1.35.45,1.96.74.45.16.9.32,1.31.53.45.2.9.45,1.31.69.45.25.9.49,1.35.78.49.29,1.02.61,1.47.94.12.08.28.21.45.33.49.33.9.65,1.35,1.06.28.2.57.45.86.73.41.33.82.74,1.18,1.14.33.28.65.61.98.98.49.53.98,1.1,1.47,1.71.08.08.16.16.25.29.45.57.86,1.1,1.22,1.71.08.12.12.2.21.28.28.41.53.78.77,1.23.04.04.08.12.08.16.49.78.94,1.59,1.35,2.45.37.7.7,1.43,1.02,2.16.29.61.53,1.22.74,1.84.25.61.45,1.27.65,1.88.12.33.2.61.28.94.69,2.41,1.18,4.9,1.43,7.34.12.9.25,1.8.37,2.69v.04c.53,4.28,1.14,8.49,1.76,12.69.28,1.92.57,3.88.86,5.8.49,3.26.98,6.53,1.51,9.79,1.06,6.53,2.2,12.98,3.43,19.42.61,3.22,1.27,6.45,1.92,9.63.61,3.06,1.26,6.12,1.92,9.14.45,2.16.94,4.33,1.43,6.45.49,2.16,1.02,4.33,1.55,6.49.69,2.94,1.43,5.88,2.2,8.82.04.2.08.41.16.61.94,3.67,1.92,7.34,2.94,10.98,1.14,4,2.33,8.04,3.55,12.08,1.1,3.67,2.29,7.39,3.51,11.06.9,2.45,1.84,4.9,2.74,7.27.98,2.41,1.92,4.81,2.9,7.14.45.98.81,1.96,1.27,2.98.65,1.51,1.31,3.02,2,4.53.65,1.47,1.35,2.9,2,4.37.78,1.72,1.59,3.39,2.41,5.06.53,1.1,1.06,2.16,1.63,3.26.65,1.31,1.35,2.61,2.04,3.92,1.35,2.61,2.78,5.18,4.24,7.8.74,1.27,1.47,2.57,2.24,3.88.65,1.14,1.35,2.29,2.04,3.43.74,1.22,1.55,2.49,2.33,3.75s1.59,2.53,2.45,3.84c.04.08.08.12.16.21v.04s0,.04.04.08c.04.12.12.2.16.29,1.59,2.45,3.27,4.94,4.98,7.43,1.1,1.51,2.16,3.02,3.26,4.57h-.04c-.65.04-1.23.12-1.88.16h-.04c-4.16.37-8.28.74-12.49,1.14-1.27.12-2.57.25-3.88.37-.73.04-1.47.12-2.24.21-.33.04-.69.04-1.02.08-5.06.53-10.08,1.02-15.18,1.59-5.26.57-10.57,1.23-15.88,1.88-2.41.29-4.82.61-7.27.94-2.9.32-5.79.69-8.73,1.1-1.8.21-3.55.45-5.35.74-.82.08-1.63.21-2.45.33-3.67.49-7.39,1.02-11.1,1.59-1.14.16-2.24.33-3.39.49-1.26.21-2.53.41-3.83.61-1.1.12-2.2.32-3.31.49-.24,0-.53.04-.81.12-3.75.57-7.55,1.14-11.34,1.8-.45.08-.9.16-1.35.25-5.14.81-10.24,1.71-15.39,2.65-.04-.04-.08-.04-.12,0-2.49.41-4.98.86-7.47,1.35-16.45,2.98-32.89,6.28-49.34,9.96-1.88.41-3.75.86-5.67,1.27-2.2.49-4.37.98-6.57,1.51-.25.04-.49.08-.74.16-2.37.53-4.69,1.1-7.02,1.67-1.63.37-3.31.78-4.94,1.18-.53.08-1.06.25-1.59.37-3.35.78-6.69,1.63-10,2.49-.57.12-1.14.28-1.72.45-2,.49-4,1.02-6.04,1.55-.33.04-.69.12-1.02.25-3.14.78-6.28,1.63-9.39,2.49-.29.04-.57.12-.86.25-2.24.61-4.45,1.18-6.65,1.8-4.49,1.23-8.98,2.45-13.43,3.76-4.16,1.22-8.37,2.45-12.57,3.71-8.37,2.49-16.73,5.1-25.06,7.8-8.28,2.69-16.57,5.51-24.81,8.37-8.24,2.9-16.45,5.88-24.61,8.98-3.8,1.43-7.55,2.9-11.35,4.37-8.41,3.27-16.73,6.65-24.97,10.16-4,1.67-8,3.39-11.96,5.14-3.75,1.63-7.47,3.31-11.14,4.98-1.88.81-3.71,1.67-5.55,2.53-4.53,2.08-9.06,4.24-13.55,6.41-1.67.82-3.35,1.63-5.02,2.45-3.88,1.88-7.71,3.79-11.55,5.75-1.92.98-3.84,1.96-5.71,2.94-8.12,4.16-16.12,8.49-24.04,12.94-1.72.94-3.39,1.88-5.1,2.86-2.2,1.22-4.37,2.49-6.57,3.79-3.31,1.92-6.57,3.84-9.79,5.8-7.63,4.57-15.18,9.26-22.61,14.12-1.67,1.06-3.31,2.12-4.94,3.22-3.88,2.57-7.75,5.14-11.59,7.84-.98.65-1.96,1.35-2.94,2.04-3.47,2.41-6.9,4.86-10.32,7.34-1.72,1.22-3.43,2.45-5.1,3.71-3.43,2.49-6.78,5.06-10.12,7.63-1.59,1.18-3.18,2.41-4.73,3.67-1.59,1.22-3.18,2.45-4.73,3.71-21.67,17.3-13.79,29.14-27.75,62.16-1.22,2.9-7.84,7.59-10.9,7.18-.21-.04-.45-.08-.65-.12-.33-.08-.65-.2-.98-.32-.37-.16-.77-.37-1.18-.61-.41-.21-.78-.45-1.18-.74-.08-.04-.16-.12-.25-.16-.53-.37-1.02-.78-1.55-1.27-.29-.2-.53-.45-.82-.69-1.06-1.02-2.16-2.2-3.35-3.51-.16-.16-.29-.33-.41-.49v-.04c-.15-.15-.26-.29-.4-.44-.05-.06-.11-.13-.16-.19-.37-.44-.74-.89-1.11-1.37-.78-.98-1.51-1.96-2.37-3.02v-.04c-.67-.89-1.33-1.87-2-2.82-.02-.04-.06-.08-.08-.12-.53-.73-1.06-1.47-1.59-2.24-.04-.04,0-.04,0-.04-.98-1.47-1.96-2.98-2.98-4.57-.08-.12-.16-.29-.25-.45-.04-.08-.12-.16-.12-.24-.12-.16-.25-.33-.37-.49-1.43-2.29-2.86-4.61-4.29-7.02-2.16-3.59-4.24-7.31-6.24-10.98l-.02-.06ZM1212.03,927.2c-2.04,1.47-4.04,2.94-6.04,4.45,4.04-2.98,8.08-5.92,12.12-8.82-2.04,1.43-4.08,2.9-6.08,4.37ZM1240.11,907.77c-2.73,1.8-5.47,3.63-8.16,5.47,4.65-3.14,9.35-6.2,14.04-9.26l-5.88,3.8h0ZM1212.03,927.2c-2.04,1.47-4.04,2.94-6.04,4.45,4.04-2.98,8.08-5.92,12.12-8.82-2.04,1.43-4.08,2.9-6.08,4.37ZM1240.11,907.77c-2.73,1.8-5.47,3.63-8.16,5.47,4.65-3.14,9.35-6.2,14.04-9.26l-5.88,3.8h0ZM1808.91,616.11c-.9,2.12-1.8,4.24-2.78,6.33-.28.65-.57,1.27-.9,1.92-.45.98-.9,2-1.39,2.98-.33.65-.33.68,0,.08-.37.74-.7,1.47-1.06,2.16-1.76,3.47-3.55,6.94-5.47,10.37-.21.41-.41.81-.65,1.22-1.71,3.02-3.47,6-5.35,8.94-.12.25-.25.45-.41.69-.9,1.43-1.8,2.86-2.77,4.29-1.1,1.67-2.2,3.31-3.39,4.94-.45.65-.9,1.27-1.35,1.92-.53.78-1.1,1.51-1.67,2.25-.28.41-.61.81-.9,1.22-.41.57-.82,1.14-1.27,1.71-.53.65-1.02,1.35-1.55,2-2.69,3.47-5.51,6.9-8.45,10.24-.78.9-1.59,1.8-2.37,2.69-.49.57-.98,1.1-1.51,1.63-.45.53-.94,1.06-1.43,1.59-.9.98-1.84,1.96-2.78,2.94-1.43,1.51-2.9,2.98-4.41,4.45h-.04c-5.02,4.98-10.2,9.71-15.51,14.2-1.59,1.39-3.22,2.78-4.9,4.08-5.79,4.69-11.71,9.18-17.83,13.43-1.67,1.14-3.31,2.24-4.98,3.35-.57.41-1.14.78-1.72,1.14-.94.61-1.84,1.22-2.77,1.75-1.76,1.14-3.51,2.25-5.26,3.27-.86.53-1.71,1.06-2.57,1.55-2.57,1.55-5.18,3.02-7.8,4.45-.04.04-.08.04-.12.08,0,.04-.04.04-.04.04-.04.04-.08.04-.12.04-2.74,1.51-5.51,2.98-8.33,4.41-1.92.98-3.84,1.92-5.75,2.86-2.41,1.14-4.82,2.29-7.26,3.39-2.45,1.1-4.94,2.16-7.43,3.22l-31.26-4.16-12-1.59c16.16-10.73,37.14-24.94,58.32-41.58,2.12-1.67,4.24-3.35,6.37-5.06,8.49-6.86,16.9-14.08,25.02-21.63,2.04-1.88,4.04-3.8,6.04-5.71,39.75-38.56,69.33-84.56,51.75-129.65-1.06,16.04-5.88,31.38-13.26,45.87-1.47,2.9-3.02,5.79-4.69,8.61s-3.43,5.63-5.26,8.41c-5.47,8.24-11.71,16.2-18.41,23.83-2.2,2.53-4.49,5.06-6.81,7.51-2.28,2.45-4.65,4.86-7.06,7.26-9.55,9.51-19.55,18.41-29.38,26.57-37.63,29.22-77.13,54.07-120.06,74.56-5.79.12-11.47.32-17.14.61-2.86.12-5.67.28-8.49.49-1.27.08-2.53.16-3.75.24-1.55.08-3.14.21-4.69.33-.82.08-1.59.12-2.41.21-2.33.16-4.69.37-7.02.57h-.16c-1.96.2-3.92.41-5.88.61-2.12.2-4.24.41-6.41.65-4.04.45-8.12.9-12.2,1.39-4.04.49-8.12,1.02-12.24,1.55h-.04c-.25.04-.53.08-.86.12-2.53.37-5.1.69-7.67,1.06-4.28.61-8.61,1.22-13.02,1.88-.86.12-1.71.25-2.57.41-4.16.61-8.37,1.27-12.61,1.92,1.14-1.92,2.28-3.88,3.35-5.79,1.1-1.92,2.2-3.84,3.26-5.79,2.16-3.84,4.24-7.71,6.28-11.59s4-7.76,5.92-11.67c2.82-5.71,5.51-11.47,8-17.22.08-.21.16-.41.28-.61.78-1.84,1.55-3.67,2.33-5.55.86-1.92,1.63-3.88,2.45-5.83,1.59-3.92,3.1-7.8,4.53-11.71.69-1.96,1.39-3.92,2.08-5.88v-.04c1.12-3.17,2.18-6.36,3.19-9.55.23-.72.5-1.44.72-2.16.61-1.92,1.18-3.84,1.71-5.75,0-.08.04-.2.08-.29.53-1.75,1.02-3.51,1.51-5.26.69-2.61,1.39-5.18,2.04-7.76.61-2.24,1.14-4.53,1.67-6.77.86-3.75,1.63-7.51,2.37-11.22.45-2.25.86-4.45,1.22-6.69.41-2.41.82-4.82,1.14-7.22.86-5.55,1.51-11.06,2.04-16.61.25-2.57.45-5.1.61-7.67.2-2.9.37-5.79.45-8.73.12-3.51.2-6.98.2-10.45,0-2.61-.04-5.26-.12-7.88-.16-5.79-.49-11.55-1.02-17.3-.12-1.51-.29-2.98-.45-4.45-.16-1.47-.33-2.94-.53-4.41-.12-1.22-.28-2.41-.45-3.59-.2-1.55-.45-3.1-.65-4.61-1.14-7.31-2.57-14.61-4.33-21.87-.61-2.53-1.26-5.1-1.96-7.63-.45-1.76-.94-3.51-1.47-5.26-.94-3.18-1.92-6.37-2.98-9.55-.37-1.18-.74-2.33-1.14-3.47-.53-1.51-1.06-3.02-1.59-4.49-.9-2.41-1.8-4.9-2.78-7.31-2.12-5.39-4.41-10.73-6.9-16.08-1.02-2.2-2.08-4.37-3.14-6.57-.08-.16-.16-.28-.2-.45v-.04s-.04-.04-.04-.08l-.04-.04c-.04-.08-.08-.12-.12-.21-.08-.16-.16-.33-.25-.49-1.06-2.2-2.2-4.41-3.39-6.61,0,0-.04-.04-.04-.08-1.26-2.37-2.53-4.73-3.88-7.06-1.39-2.49-2.82-4.94-4.29-7.43-1.92-3.22-3.92-6.41-5.96-9.63,33.46,123.49-3.55,246.29-77.78,345.78-9.3,15.35-22.04,24.28-38.52,30.32-48.85,18-93.29,42.77-136.59,71.38-3.35,2.2-6.9,3.88-10.61,4.98-1.25.37-2.51.68-3.79.93-8.92,1.72-18.5.35-27.71-4.07-15.18-7.31-29.14-15.55-42.24-24.81-16.81-11.92-32.24-25.34-46.89-40.28-2.73-2.77-5.39-5.63-7.96-8.53-12.85-14.37-23.95-29.71-35.46-45.22-4.57-6.24-9.26-12.49-14.12-18.73,0,.04.04.12.04.16.69,1.92,1.35,3.84,2.04,5.71.49,1.39.98,2.73,1.51,4.08.57,1.55,1.18,3.14,1.79,4.69.45,1.18.94,2.41,1.43,3.59,1.27,3.18,2.61,6.33,4,9.47.86,1.96,1.71,3.92,2.61,5.83.61,1.39,1.27,2.78,1.92,4.12,2.41,5.06,4.94,10.04,7.55,14.98,1.31,2.45,2.65,4.9,4.04,7.31s2.78,4.82,4.2,7.18c1.14,1.88,2.28,3.76,3.43,5.59.12.28.33.57.53.86.2.29.37.53.57.86.04.08.08.21.16.29.08.16.16.32.25.45v.04c1.02,1.55,2.04,3.14,3.06,4.69.04.12.12.2.2.33,1.06,1.59,2.12,3.14,3.22,4.73s2.24,3.18,3.35,4.77c1.14,1.59,2.29,3.18,3.47,4.73,0,.04.04.04.04.04,1.06,1.47,2.12,2.9,3.22,4.32,1.23,1.67,2.49,3.27,3.75,4.86,1.14,1.47,2.33,2.94,3.55,4.41,1.96,2.41,3.96,4.78,5.96,7.1,2.04,2.37,4.08,4.69,6.2,6.98,4.16,4.57,8.49,9.02,12.9,13.34,1.02,1.02,2.04,2,3.06,2.98,1.8,1.8,3.63,3.51,5.51,5.14,2.16,2,4.37,3.96,6.57,5.92,3.02,2.65,6.08,5.22,9.22,7.75,1.47,1.18,2.94,2.45,4.28,3.8.69.61,1.39,1.31,2.04,2.04,3.22,3.43,5.71,7.1,6.28,10.41.2,1.27.33,2.53.33,3.8,0,.65-.04,1.31-.12,1.96-.04.37-.08.74-.12,1.1,0,.08,0,.16-.04.2-.08.45-.12.94-.24,1.39-.04.25-.08.53-.16.78-.04.25-.12.45-.16.69h-.04c-.12.53-.25,1.02-.45,1.47-.04.12-.08.25-.12.37-.24.65-.45,1.26-.73,1.88-.41.81-.82,1.63-1.27,2.41-.12.2-.25.41-.37.61-.04.08-.08.16-.12.25-.2.37-.45.69-.69,1.02-.04.08-.12.2-.2.28-.29.41-.61.82-.94,1.23-.16.2-.33.41-.49.61,7.14,7.47,14.65,14.57,22.49,21.38,2.82,2.45,5.71,4.86,8.65,7.22,3.55,2.86,7.14,6.37,9.59,9.84.28-.25.57-.45.86-.69,2.82-2.33,5.63-4.61,8.45-6.9,3.02-2.41,6.04-4.82,9.06-7.14.25-.21.49-.41.74-.57,2.2-1.71,4.37-3.43,6.57-5.06,1.47-1.14,2.9-2.25,4.37-3.31,1.43-1.1,2.86-2.2,4.33-3.22h.04c4.02-2.97,8.05-5.89,12.07-8.78.05-.03.1-.07.15-.1,3.66-2.58,7.38-5.14,11.08-7.68,1.86-1.27,3.72-2.53,5.6-3.78,3.69-2.46,7.38-4.9,11.1-7.32,1.55-1.02,3.14-2.04,4.73-3.02,1.55-1.02,3.14-2,4.73-2.98,4.33-2.73,8.65-5.35,13.06-7.96,1.63-.98,3.31-1.96,4.98-2.9,3.35-1.96,6.69-3.88,10.08-5.75,1.8-1.02,3.59-2.04,5.43-3.02,5.96-3.31,11.92-6.49,17.96-9.55,2.53-1.31,4.98-2.57,7.51-3.8,7.71-3.84,15.55-7.55,23.43-11.06,2.57-1.18,5.18-2.33,7.75-3.43,2.94-1.31,5.88-2.57,8.86-3.79,6.41-2.69,12.86-5.26,19.34-7.71,2.73-1.06,5.51-2.08,8.28-3.1,2.9-1.06,5.84-2.08,8.73-3.1,8.77-3.06,17.63-5.96,26.53-8.61,2.16-.65,4.37-1.31,6.53-1.92,1.55-.45,3.14-.9,4.69-1.35,2.37-.65,4.73-1.31,7.06-1.92,2.69-.74,5.39-1.43,8.08-2.08,2.04-.53,4.04-1.02,6.08-1.51,5.79-1.43,11.63-2.73,17.47-3.96,4.12-.9,8.24-1.71,12.36-2.45,1.67-.33,3.35-.65,5.06-.94,3.26-.57,6.53-1.14,9.79-1.67,1.16-.2,2.32-.38,3.49-.55,4.33-.68,8.66-1.35,13.04-1.9.49-.08.98-.16,1.47-.21,3.88-.53,7.79-.98,11.71-1.43,1.76-.21,3.55-.37,5.31-.57,1.96-.21,3.96-.41,5.92-.57,1.96-.16,3.92-.33,5.88-.49,3.92-.32,7.87-.61,11.83-.86,3.96-.24,7.92-.45,11.92-.61,3.75-.16,7.51-.28,11.26-.37.37-.04.73-.04,1.1-.04,3.92-.08,7.88-.12,11.79-.12,3.02,0,6.08.04,9.14.08,2.77.04,5.59.12,8.37.2,3.06.08,6.16.21,9.22.37.37,0,.78,0,1.18.04,2.9.12,5.79.28,8.69.49,2.49.12,4.98.33,7.51.49,1.59.12,3.22.25,4.86.41,2.37.16,4.69.41,7.06.61,1.02.08,2,.25,2.94.45.94.16,1.84.41,2.73.69.65.2,1.35.45,1.96.74.45.16.9.32,1.31.53.45.2.9.45,1.31.69.45.25.9.49,1.35.78.49.29,1.02.61,1.47.94.12.08.28.21.45.33.49.33.9.65,1.35,1.06.28.2.57.45.86.73.41.33.82.74,1.18,1.14.33.28.65.61.98.98,13.63-9.1,30.12-20.4,47.09-33.34,10.94-8.33,22.08-17.34,32.77-26.97l.12-.12c.08,0,.12-.08.21-.12,43.22-38.81,79.21-86.56,65.58-133.78v-.06Z"/>
    <path class="st11" d="M1161.51,864.09c-34.69-16.67-63.06-38.58-89.13-65.12-21.9-22.3-38.09-47.52-57.57-72.45,21.64,63.09,59.34,116.71,109.41,157.3,5.81,4.71,11.68,10.99,12.59,16.23,1.43,8.22-2.1,16.78-8.24,22.45-43.03,39.76-80.27,83.3-113.73,131.15-11.25,15.76-28.53,20.28-46.84,15.84-61.58-14.92-111.37-48.09-158.93-93.37,39.22,60.51,102.48,101.74,173.58,118.53,9.06,2.14,13.92,15.22,16.79,22.41,14.86,33.28,1.55,67.62-31.55,83.01-40.86,18.99-86.49,24.44-132.41,17.45-92.28-14.06-196.95-63.78-249.88-142.86-33.31-49.77-32.22-109.76.53-159.81,23.43-35.81,54.34-63.74,90.31-89.61-1.18-40.44,3.36-79.6,18.47-117.89,39.32-102.14,130.16-146.85,235.29-158.66-26.52-139.25-9.66-326.23,154.56-367.08,31.94-7.94,63.46-10.56,96.78-10.54,115.35.05,216.23,49.33,248.46,169.22,108.25-80.55,242.04-96.18,335.15,11.76,79.71,99.85,87.36,246.66-8.09,340.63-26.78,26.37-57.68,46.75-92.41,61.28l-43.26-5.78c58.28-38.66,179.09-122.52,147.47-203.64-3.33,51.39-45.55,95.39-84.86,128.06-37.66,29.25-77.16,54.1-120.07,74.56-39.67.85-76.11,5.66-117.2,12.03,66.9-113.31,82-231.89,9.76-344.41,33.49,123.46-3.55,246.3-77.78,345.76-9.3,15.34-22.02,24.28-38.51,30.35-48.87,17.99-93.28,42.77-136.62,71.37-12.35,8.15-27.66,8.78-42.09,1.85l.02-.02Z"/>
    <path class="st11" d="M1168.65,1231.25c-21.69,17.31-13.79,29.13-27.75,62.15-1.23,2.91-7.86,7.59-10.91,7.16-13.77-1.92-42.66-61.27-49.96-76.55l-45.97-96.15c-3.44-7.2-3.62-19.19,1.87-26.48,143.39-190.52,364.05-323.41,609.32-300,16.16,1.54,25.89,16.24,27.37,31.07,5.56,43.4,13.47,84.53,27.07,125.68,9.66,26.19,21.12,49.09,38.9,73.86-194.5,16.26-415.03,75.66-569.93,199.27h0Z"/>
  </g>
  <rect class="st0" x="1284.26" y="1484.84" width="29.79" height="143.85" rx="14.9" ry="14.9"/>
  <rect class="st0" x="1284.26" y="1648.33" width="29.79" height="64.93" rx="14.9" ry="14.9"/>
  <rect class="st11" x="1273.71" y="1474.29" width="29.79" height="143.85" rx="14.9" ry="14.9"/>
  <rect class="st11" x="1273.71" y="1637.78" width="29.79" height="64.93" rx="14.9" ry="14.9"/>
</svg>